<?xml version="1.0" standalone="no"?>
<!DOCTYPE svg PUBLIC "-//W3C//DTD SVG 20010904//EN"
 "http://www.w3.org/TR/2001/REC-SVG-20010904/DTD/svg10.dtd">
<svg version="1.0" xmlns="http://www.w3.org/2000/svg"
 width="300.000000pt" height="282.000000pt" viewBox="0 0 300.000000 282.000000"
 preserveAspectRatio="xMidYMid meet">
<metadata>
Created by potrace 1.10, written by Peter Selinger 2001-2011
</metadata>
<g transform="translate(0.000000,282.000000) scale(0.100000,-0.100000)"
fill="#000000" stroke="none">
<path d="M1305 2384 c-93 -14 -186 -39 -227 -62 -62 -32 -213 -175 -204 -191
4 -6 4 -10 -1 -9 -12 4 -15 -5 -7 -26 5 -13 1 -23 -12 -33 -10 -8 -19 -17 -20
-21 -2 -19 -17 -41 -24 -37 -9 6 -34 -53 -31 -74 1 -7 -2 -10 -7 -7 -15 9 -1
-146 20 -227 8 -32 6 -42 -8 -58 -16 -18 -16 -27 -5 -102 7 -45 14 -121 15
-169 1 -71 5 -92 22 -115 23 -30 54 -49 96 -58 23 -4 28 -12 38 -59 6 -29 27
-87 47 -127 40 -84 47 -152 24 -232 -10 -35 -20 -49 -37 -53 -13 -3 -24 -10
-24 -15 0 -5 -3 -8 -7 -7 -21 6 -113 -54 -172 -111 -41 -39 -97 -80 -146 -106
-159 -84 -241 -129 -280 -155 -22 -15 -54 -34 -72 -43 -29 -16 -31 -19 -26
-59 3 -24 12 -48 20 -55 9 -7 13 -19 10 -28 -7 -17 -27 -21 -27 -5 0 6 5 10
11 10 5 0 -3 11 -18 25 -16 14 -22 25 -14 25 10 0 11 3 2 14 -9 11 -9 15 1 19
7 2 10 8 6 12 -17 18 -68 -39 -106 -117 -49 -102 -58 -130 -40 -126 20 4 28
21 22 42 -5 13 -3 16 7 11 9 -6 11 -3 6 9 -6 14 -3 17 10 12 15 -6 16 -5 6 5
-16 16 -17 33 -1 23 7 -5 9 -2 5 8 -4 12 0 15 16 11 22 -5 22 -5 2 12 -18 15
-18 16 -2 11 10 -3 23 -6 28 -6 6 0 7 -9 4 -20 -4 -12 -2 -20 5 -20 6 0 9 4 6
9 -4 5 0 12 6 15 10 5 10 7 1 12 -7 3 -10 11 -7 19 3 7 0 16 -7 21 -9 5 -10 2
-6 -9 3 -10 2 -17 -3 -17 -17 0 -20 18 -5 30 12 10 20 9 40 -4 29 -19 33 -31
8 -21 -14 5 -15 3 -7 -5 9 -9 8 -19 -4 -40 -14 -24 -19 -27 -37 -18 -19 11
-19 10 -2 -9 9 -11 15 -22 12 -25 -3 -3 1 -11 9 -17 12 -10 17 -8 26 8 7 14 7
21 0 21 -5 0 -10 -5 -10 -12 0 -6 -3 -9 -6 -6 -3 4 2 19 11 35 9 15 14 20 11
11 -3 -10 -1 -18 5 -18 6 0 9 -6 6 -12 -3 -7 -8 -22 -12 -33 -6 -19 -6 -19 8
-2 8 9 18 17 23 17 4 0 3 -5 -4 -12 -16 -16 -15 -25 4 -32 10 -4 23 1 31 11
14 17 14 17 8 -2 -6 -19 -5 -19 14 2 16 16 19 30 15 52 -4 17 -13 31 -20 31
-8 0 -14 6 -14 13 0 9 -2 9 -9 -1 -7 -11 -9 -11 -14 2 -4 9 -3 15 1 14 4 -1
15 2 26 7 12 5 21 3 27 -6 11 -18 11 15 -1 51 l-8 25 -1 -26 c-1 -31 -31 -49
-31 -20 0 11 6 22 13 25 6 3 0 3 -16 0 -26 -6 -27 -5 -26 37 l2 44 7 -40 7
-40 3 50 3 50 4 -42 c2 -24 8 -43 12 -43 4 0 5 20 1 45 -4 25 -3 45 2 45 4 0
9 -17 10 -37 l1 -38 6 44 c5 39 9 44 32 45 25 1 26 -1 28 -55 1 -43 -2 -58
-14 -62 -10 -5 -15 0 -15 13 0 11 -4 20 -9 20 -4 0 -6 -11 -3 -25 5 -29 4 -28
34 -15 21 10 23 17 20 68 -2 35 -9 61 -18 68 -13 10 -13 12 1 18 8 3 15 1 15
-4 0 -6 5 -10 11 -10 5 0 7 5 3 12 -5 7 -2 9 9 5 11 -4 14 -2 11 8 -7 16 31
39 52 31 8 -3 15 1 16 12 0 9 4 -3 8 -28 l7 -45 2 50 c2 40 4 45 10 25 l8 -25
5 25 c5 21 5 20 7 -8 0 -20 -3 -31 -9 -27 -6 4 -10 -9 -9 -32 1 -38 1 -38 9
-8 l8 30 0 -35 c1 -19 -5 -62 -12 -95 -12 -60 -13 -60 -17 -22 -3 21 -1 40 3
43 4 3 8 13 7 22 0 14 -2 13 -8 -3 -9 -20 -9 -20 -13 0 -4 17 -5 16 -3 -2 1
-13 -4 -24 -14 -26 -13 -4 -13 -5 2 -6 13 -1 17 -10 17 -37 0 -31 2 -35 21
-29 14 5 25 2 30 -6 7 -11 9 -10 9 3 0 9 8 19 18 21 13 4 11 5 -5 6 -13 0 -23
7 -24 14 0 6 -4 3 -9 -8 -9 -20 -9 -20 -8 0 0 11 4 34 8 50 6 24 8 26 9 8 1
-21 5 -22 39 -17 49 8 57 18 10 12 -35 -4 -38 -2 -44 27 -8 45 0 165 11 165 6
0 11 -18 13 -41 2 -27 0 -39 -7 -34 -7 4 -11 -7 -10 -32 1 -38 1 -38 9 -8 7
29 8 29 11 5 1 -14 5 11 8 54 4 50 11 81 19 84 8 2 12 -7 12 -28 0 -26 2 -29
14 -18 8 7 10 15 5 16 -17 6 -9 41 11 52 15 8 21 8 24 -2 12 -37 16 -40 13
-11 -4 37 9 45 16 11 4 -20 4 -20 6 4 1 17 8 29 20 33 12 3 18 12 15 20 -3 8
1 12 13 12 10 -1 18 4 17 13 -1 9 4 20 10 26 8 8 12 0 12 -28 1 -21 -1 -38 -5
-38 -4 0 -5 -18 -3 -40 6 -64 17 -46 17 28 -1 96 4 112 29 111 20 0 20 -1 2
-8 -18 -7 -18 -8 -3 -14 9 -3 17 -3 17 2 0 4 10 7 23 6 12 -2 31 3 43 10 17
11 21 11 21 0 0 -8 -5 -13 -10 -12 -5 1 -11 -4 -12 -11 -2 -7 -1 -8 1 -3 3 6
13 7 21 4 12 -5 15 -2 10 11 -5 12 0 19 16 26 12 5 17 9 10 9 -14 1 -10 34 5
39 8 2 10 -3 5 -14 -4 -11 -3 -15 4 -11 6 4 11 -3 11 -18 0 -14 -3 -23 -7 -21
-4 3 -7 -4 -7 -14 0 -14 3 -16 13 -8 9 7 13 7 13 -1 0 -18 -4 -26 -12 -23 -12
3 -9 -31 3 -48 9 -12 10 -11 6 7 -5 23 5 36 38 46 20 7 20 7 0 -8 -11 -9 -20
-28 -20 -43 -1 -16 -6 -27 -14 -27 -8 0 -17 -10 -22 -23 -11 -29 -1 -29 12 1
7 18 8 14 4 -18 -3 -29 -2 -34 5 -20 6 14 9 16 10 5 1 -8 8 3 16 24 11 31 12
42 1 55 -6 8 7 1 31 -18 46 -36 57 -53 17 -27 -14 9 -25 14 -25 12 0 -9 133
-115 140 -111 3 2 7 -6 7 -18 1 -12 -1 -17 -5 -12 -6 9 -86 77 -134 113 -15
12 -16 11 -5 -11 6 -14 15 -23 18 -21 4 2 18 -5 31 -16 19 -14 24 -26 20 -45
-2 -14 -1 -25 4 -24 24 4 30 -6 32 -58 1 -31 5 -59 8 -62 2 -3 4 23 3 58 -1
40 -7 65 -15 68 -7 2 -15 11 -18 19 -4 10 -2 13 7 8 28 -16 45 -37 41 -49 -3
-7 -1 -16 5 -20 6 -3 9 0 5 8 -8 22 15 32 33 15 13 -13 12 -17 -3 -32 -9 -9
-22 -15 -28 -13 -7 3 -13 -6 -14 -20 -3 -32 8 -49 19 -32 6 10 9 3 9 -20 0
-25 4 -32 15 -27 12 4 15 -4 15 -44 0 -28 -4 -50 -10 -50 -5 0 -10 -9 -10 -21
0 -14 5 -19 14 -16 11 4 16 -3 19 -26 4 -30 4 -30 5 7 2 30 -1 37 -13 32 -8
-3 -15 -1 -15 4 0 6 7 10 16 10 10 0 14 6 10 15 -3 9 0 15 9 15 8 0 15 4 15
10 0 5 -7 7 -15 4 -12 -5 -15 2 -15 30 0 20 5 36 11 36 6 0 9 7 5 15 -3 10 1
15 12 16 14 0 14 2 2 6 -8 3 -19 11 -23 17 -5 6 -7 0 -4 -16 3 -20 -1 -28 -15
-31 -14 -4 -18 0 -17 21 0 24 1 25 9 7 8 -19 9 -19 9 2 1 12 -4 23 -10 25 -12
4 -1 38 13 38 5 0 19 -11 32 -25 28 -30 36 -32 29 -5 -3 11 -9 17 -14 14 -5
-3 -12 2 -15 10 -3 9 -14 16 -23 17 -12 0 -11 2 4 8 14 6 22 4 27 -8 4 -9 7
-11 7 -4 1 6 4 19 7 28 6 14 3 14 -20 4 -34 -16 -43 -6 -29 31 6 16 8 32 5 35
-4 3 -7 20 -7 37 0 17 -6 33 -13 36 -7 2 -11 -2 -10 -8 2 -7 -3 -15 -11 -18
-9 -3 -11 0 -7 7 4 6 4 10 -1 9 -4 -2 -8 2 -8 7 0 6 3 9 8 7 4 -1 6 1 6 5 -3
21 2 24 18 12 9 -8 18 -13 20 -11 9 6 24 1 19 -7 -9 -14 4 -41 20 -41 8 0 14
-4 14 -9 0 -5 8 -8 18 -6 22 3 82 -27 64 -33 -7 -2 -19 2 -28 8 -8 7 -17 10
-21 6 -3 -3 -1 -6 6 -6 7 0 9 -4 6 -10 -3 -5 -1 -18 5 -27 9 -16 10 -15 5 4
-5 19 -3 22 12 16 22 -8 53 -42 53 -57 0 -6 -11 2 -25 18 -14 16 -25 24 -25
18 0 -6 6 -17 13 -24 19 -20 18 -68 -2 -68 -10 0 -12 3 -4 8 8 5 7 15 -3 37
l-14 30 5 -30 c4 -24 -1 -19 -19 20 -14 28 -25 43 -25 35 -1 -13 -2 -13 -12 0
-8 12 -10 11 -7 -5 2 -11 10 -20 18 -20 8 0 16 -9 17 -20 2 -11 0 -14 -3 -7
-7 16 -34 16 -34 0 0 -7 5 -20 11 -28 8 -12 9 -9 5 10 -6 25 -6 25 5 2 7 -12
18 -22 25 -22 6 0 17 -14 23 -30 11 -32 26 -43 16 -11 -3 12 0 21 10 25 8 3
15 1 15 -4 0 -6 -5 -10 -11 -10 -5 0 -8 -4 -5 -9 4 -5 3 -16 0 -25 -5 -12 -10
-14 -19 -6 -7 6 -24 8 -38 5 -19 -5 -26 -2 -30 12 -4 15 -5 14 -6 -4 -1 -18 4
-23 24 -23 16 0 25 -6 25 -15 0 -8 6 -15 13 -15 9 0 8 -3 -2 -9 -9 -6 -10 -11
-2 -15 6 -4 11 -3 11 2 0 5 7 9 15 9 8 0 15 -4 15 -8 0 -13 -36 -29 -45 -21
-5 4 -5 1 -1 -6 5 -8 0 -12 -13 -12 -11 0 -22 8 -24 18 -4 13 -5 11 -6 -5 -1
-19 4 -23 27 -23 28 0 29 -2 23 -63 -1 -5 -5 -5 -11 -2 -5 3 -10 -1 -10 -11 0
-13 3 -14 15 -4 8 7 15 8 15 2 0 -5 14 -9 30 -8 17 0 30 5 30 10 0 5 5 5 13
-1 11 -8 46 -9 100 -5 21 2 23 38 2 46 -8 3 -12 12 -9 21 3 8 9 13 13 10 4 -2
7 9 7 25 0 17 -2 28 -4 25 -7 -7 -32 15 -32 28 0 7 4 7 12 -1 15 -15 28 -15
28 -1 0 5 -4 7 -10 4 -5 -3 -10 -1 -10 4 0 6 5 11 10 11 6 0 10 5 10 11 0 8
-5 7 -15 -1 -9 -7 -19 -10 -22 -6 -10 10 17 26 45 26 17 0 22 6 22 25 0 18 5
25 19 25 11 0 23 5 27 12 4 7 3 8 -4 4 -16 -10 -15 9 1 22 6 5 22 13 34 16 18
6 22 3 21 -16 -2 -28 -17 -50 -29 -42 -5 3 -17 0 -26 -5 -17 -10 -17 -10 0
-11 9 0 17 -4 17 -10 0 -5 -7 -7 -15 -4 -8 4 -15 1 -15 -5 0 -6 5 -11 10 -11
6 0 10 -16 10 -35 0 -31 -3 -35 -25 -35 -22 0 -25 -4 -24 -32 2 -31 2 -31 6
-6 3 20 10 28 24 28 15 0 19 -7 19 -36 0 -28 -3 -35 -15 -30 -8 3 -15 1 -15
-4 0 -6 9 -10 20 -10 18 0 20 7 21 73 1 51 3 65 9 47 5 -15 8 -18 9 -8 1 11 7
15 21 11 11 -3 20 -9 20 -14 0 -5 -7 -6 -15 -3 -10 4 -15 0 -15 -15 0 -15 6
-21 23 -20 16 1 18 2 5 6 -10 2 -18 8 -18 13 0 5 7 7 15 4 12 -5 15 5 13 57
-1 50 -2 54 -5 21 -5 -46 -8 -49 -40 -27 -23 16 -22 40 3 49 11 4 12 2 4 -14
-15 -27 -12 -34 6 -15 9 8 13 22 10 30 -3 8 -3 22 1 31 5 13 7 13 14 2 7 -10
9 -9 9 5 0 9 -4 17 -10 17 -5 0 -10 4 -10 9 0 6 9 9 20 8 12 -1 18 -7 16 -14
-3 -7 -1 -13 4 -13 6 0 10 12 10 26 0 20 -3 24 -12 16 -9 -7 -17 -6 -25 3 -8
9 -9 16 -3 20 6 3 10 1 10 -6 0 -8 4 -8 15 1 13 10 13 15 3 21 -7 4 -9 11 -6
14 11 12 28 -5 29 -28 0 -21 1 -21 9 -2 5 13 3 24 -6 31 -21 17 -17 26 6 12
11 -7 18 -19 15 -25 -2 -7 0 -13 5 -13 6 0 10 9 10 20 0 11 -6 20 -12 20 -9 0
-10 3 -2 8 6 4 10 15 8 26 -7 47 25 60 37 15 7 -23 7 -23 8 -1 1 12 7 22 16
22 8 0 16 6 17 13 1 6 4 -17 8 -53 l7 -65 1 63 c1 35 6 61 11 58 10 -6 25 24
16 32 -3 3 -5 0 -5 -6 0 -7 -7 -12 -15 -12 -8 0 -15 7 -15 15 0 8 -4 15 -10
15 -5 0 -7 7 -3 16 5 13 9 10 20 -12 12 -27 13 -27 8 -4 -2 14 -5 29 -5 34 0
4 -7 5 -16 2 -10 -4 -14 -2 -11 6 2 7 10 12 16 10 9 -2 9 3 1 18 -8 15 -7 26
6 45 11 17 13 25 4 25 -6 0 -14 -9 -17 -20 -3 -11 -9 -17 -14 -14 -5 3 -12 -2
-15 -10 -3 -9 -10 -16 -14 -16 -13 0 -5 49 10 63 10 10 12 8 6 -8 -7 -18 -5
-18 17 3 13 12 27 19 32 15 4 -5 5 -2 1 5 -4 7 -12 9 -18 6 -8 -5 -9 -1 -5 10
4 10 7 20 7 23 0 4 9 -2 20 -12 11 -10 20 -15 20 -12 0 14 44 -11 46 -26 1
-10 -2 -15 -7 -11 -5 3 -6 11 -3 17 5 9 4 9 -5 1 -10 -9 -9 -17 4 -38 18 -27
6 -37 -15 -11 -19 23 -48 -1 -45 -39 3 -38 14 -66 26 -66 5 0 9 -7 9 -15 0 -8
8 -15 18 -14 10 0 12 3 5 6 -7 2 -13 11 -13 19 0 8 -4 14 -9 14 -13 0 -32 58
-21 65 5 3 10 -7 12 -22 2 -19 10 -29 31 -34 15 -4 27 -3 27 2 0 5 -9 9 -20 9
-13 0 -22 9 -26 28 -4 15 -11 30 -17 33 -5 4 -5 9 2 13 6 4 14 -7 19 -26 5
-21 15 -34 28 -36 18 -3 18 -2 2 8 -10 6 -18 16 -18 21 0 6 10 3 22 -5 12 -9
32 -16 43 -15 13 0 9 4 -12 10 -37 11 -46 30 -10 22 l22 -5 -23 19 c-15 13
-21 25 -16 36 6 17 8 17 25 1 10 -9 16 -20 14 -25 -3 -4 -1 -10 5 -14 6 -3 10
3 10 16 0 18 2 19 15 9 10 -9 16 -34 17 -84 l1 -71 6 64 c4 40 11 65 19 67 7
1 8 0 2 -3 -5 -2 -9 -28 -8 -56 l1 -52 7 50 c4 28 8 41 9 30 1 -16 3 -17 10
-5 6 8 7 19 3 25 -3 5 1 4 10 -3 9 -7 26 -15 39 -17 35 -7 43 -21 42 -73 0
-33 1 -37 4 -12 6 56 11 64 28 50 8 -7 15 -9 15 -5 0 5 10 0 22 -11 12 -10 18
-13 14 -7 -4 7 -2 13 3 13 10 0 15 -14 12 -33 -1 -5 3 -6 9 -2 6 3 7 12 3 18
-4 7 1 5 12 -3 10 -8 20 -14 22 -12 1 1 4 2 6 1 1 0 10 -2 20 -4 10 -2 26 -7
35 -11 9 -4 19 -8 22 -9 3 0 40 -18 84 -39 43 -20 81 -35 84 -32 10 10 -221
113 -374 167 -82 29 -161 61 -176 71 -15 11 -61 35 -102 53 -40 19 -76 42 -80
50 -3 9 -11 13 -17 9 -8 -4 -9 -3 -5 4 4 6 -9 49 -29 95 -40 94 -41 135 -6
225 12 29 21 69 21 91 0 35 3 39 39 53 57 23 93 81 97 161 2 34 9 85 15 113
15 66 7 158 -14 182 -9 10 -14 27 -11 38 3 12 0 45 -6 75 -6 30 -13 68 -15 84
-13 95 -37 158 -76 200 -16 17 -29 35 -29 39 0 19 -94 121 -145 158 -80 57
-171 87 -280 92 -49 2 -103 2 -120 0z m52 -33 c-10 -12 -9 -13 1 -7 22 13 72
18 72 7 0 -6 10 -11 23 -10 21 0 21 1 2 9 -13 6 0 7 35 3 63 -6 79 -13 30 -13
-18 0 -31 -2 -29 -4 8 -9 91 -17 86 -9 -3 5 19 -2 48 -16 56 -26 69 -40 20
-21 -15 6 -30 8 -32 6 -3 -3 14 -10 37 -17 23 -7 44 -19 47 -26 3 -7 11 -13
18 -13 16 0 85 -60 85 -73 0 -5 -8 -3 -17 4 -10 7 -2 -5 17 -26 19 -22 39 -43
44 -46 5 -4 5 -12 2 -18 -5 -7 -2 -10 6 -9 7 2 12 -5 11 -15 0 -12 4 -16 13
-13 8 3 14 -1 14 -10 0 -11 -5 -14 -17 -10 -23 9 -9 -4 19 -18 24 -12 43 -81
26 -92 -4 -3 -4 -13 1 -22 4 -9 6 -23 3 -31 -3 -9 0 -11 8 -6 9 5 11 4 6 -4
-6 -9 -11 -9 -22 0 -12 10 -13 9 -8 -5 3 -9 11 -16 16 -16 6 0 8 -7 4 -15 -3
-8 0 -14 6 -12 18 3 27 -57 11 -78 -7 -11 -13 -28 -14 -39 0 -14 -2 -16 -6 -6
-2 8 -9 24 -14 35 -5 11 -11 31 -13 45 -3 14 -5 26 -5 28 -3 8 6 16 14 14 6
-2 7 -1 3 3 -3 4 -10 6 -13 5 -10 -2 -45 52 -39 61 2 4 -5 23 -16 41 -11 18
-24 42 -29 53 -14 31 -58 69 -58 50 0 -8 9 -17 19 -21 10 -3 18 -10 18 -15 0
-6 -5 -7 -11 -3 -8 4 -8 0 0 -15 7 -11 17 -20 24 -18 7 1 11 -6 11 -15 -1 -10
2 -18 7 -18 5 0 4 -11 -1 -24 -7 -19 -5 -28 8 -38 15 -12 16 -11 4 4 -9 11
-10 18 -2 23 6 3 7 12 4 18 -4 7 -3 9 1 4 9 -8 15 -37 16 -72 0 -11 6 -26 14
-35 19 -22 38 -99 36 -144 -3 -35 -1 -38 12 -27 9 7 19 26 22 42 8 36 21 45
41 28 14 -12 14 -15 -5 -30 -16 -13 -20 -24 -15 -43 3 -14 10 -26 15 -26 11 0
7 23 -6 32 -6 5 -5 12 2 19 23 23 26 0 13 -103 -7 -57 -13 -123 -14 -148 -3
-62 -20 -88 -72 -110 -25 -11 -44 -26 -44 -35 0 -8 -4 -15 -10 -15 -5 0 -10
-20 -10 -45 0 -25 -7 -62 -16 -83 -22 -48 -24 -57 -30 -119 -3 -31 -1 -54 5
-58 15 -9 14 -35 -4 -69 -8 -15 -12 -32 -9 -37 3 -5 0 -8 -8 -7 -7 2 -24 -21
-39 -52 -15 -30 -31 -55 -37 -55 -6 0 -27 -21 -47 -48 -21 -27 -41 -45 -47
-41 -8 5 -9 1 -4 -12 4 -10 10 -30 12 -43 4 -21 3 -22 -10 -11 -9 7 -13 16
-10 21 3 5 1 9 -5 9 -18 0 -23 -20 -7 -26 9 -3 13 -11 10 -16 -4 -7 -10 -4
-16 6 -5 9 -14 16 -19 16 -6 0 -7 -5 -4 -10 3 -5 -1 -10 -9 -10 -9 0 -16 -7
-16 -16 0 -8 -4 -12 -10 -9 -6 4 -7 -1 -3 -11 4 -12 3 -15 -5 -10 -7 4 -22 0
-33 -8 l-22 -15 22 2 c11 1 21 4 21 7 0 3 11 5 25 5 14 0 25 -5 25 -11 0 -11
-6 -12 -55 -15 -18 -1 -25 -7 -26 -23 0 -21 0 -21 -9 2 -5 12 -14 22 -20 22
-7 0 -8 -6 0 -19 13 -25 13 -34 -1 -25 -7 4 -10 1 -7 -7 3 -8 11 -13 18 -11
11 3 11 0 0 -13 -7 -8 -10 -18 -6 -22 3 -3 6 -1 6 5 0 7 6 11 13 10 7 -2 11 5
10 17 -1 11 0 14 3 8 3 -7 10 -13 15 -13 6 0 6 8 -1 19 -16 30 -11 39 6 11 14
-24 15 -24 11 -2 -3 12 -1 19 4 16 5 -3 12 3 16 12 6 16 7 16 14 -2 6 -16 8
-16 8 -2 1 29 51 2 51 -27 -1 -5 -7 -2 -14 7 -7 10 -17 18 -21 18 -4 0 -2 -7
6 -16 10 -13 10 -17 -2 -25 -10 -6 -20 -2 -33 14 -14 16 -18 17 -13 4 4 -9 2
-17 -5 -17 -7 0 -7 -4 1 -13 6 -8 8 -16 6 -19 -9 -8 17 -58 26 -52 5 3 9 1 9
-4 0 -6 -7 -12 -15 -16 -8 -3 -15 -11 -14 -18 0 -10 2 -10 6 0 2 6 9 10 14 6
5 -3 9 0 9 7 0 8 4 8 15 -1 8 -7 15 -17 15 -22 0 -7 -5 -7 -13 0 -8 7 -18 7
-27 2 -13 -8 -12 -12 4 -27 18 -17 19 -17 12 1 -7 19 -6 19 14 1 20 -18 20
-18 20 8 0 16 7 28 18 31 21 7 23 47 3 84 -16 30 -23 28 -11 -4 17 -43 13 -74
-10 -74 -11 0 -20 2 -20 4 0 2 -3 13 -7 23 -6 17 -5 17 13 -1 19 -20 19 -19
22 3 2 13 -2 28 -8 35 -9 8 -11 5 -5 -14 6 -25 6 -25 -12 3 -11 15 -23 24 -26
20 -4 -3 -7 -2 -7 4 0 6 16 20 35 32 31 18 35 18 35 4 0 -9 2 -14 5 -11 4 3 3
18 -1 33 -5 20 -9 23 -15 13 -7 -10 -9 -9 -9 4 0 9 6 18 13 21 6 2 9 7 6 11
-3 4 -18 2 -33 -3 -21 -9 -26 -8 -26 5 0 8 5 12 10 9 6 -3 10 0 10 7 0 10 2
10 8 1 5 -8 13 -9 22 -3 22 14 30 12 24 -7 -5 -15 -4 -16 5 -3 14 20 -14 42
-44 34 -15 -4 -24 0 -29 12 -5 14 -4 15 8 5 10 -9 16 -9 21 -1 5 7 17 5 38 -8
l32 -18 1 35 c1 32 0 33 -9 13 -13 -28 -24 -28 -23 0 2 31 16 53 25 39 4 -6
12 -2 20 12 13 21 13 21 -4 7 -17 -14 -18 -13 -12 3 5 12 3 16 -4 11 -7 -4
-10 -1 -7 7 3 8 13 13 22 11 9 -2 19 4 22 12 8 21 25 10 18 -12 -5 -14 -4 -14
4 -2 8 10 8 18 1 27 -12 14 -2 36 12 27 5 -3 6 -10 3 -16 -4 -7 -2 -8 4 -4 13
8 12 -28 -1 -40 -3 -4 -2 -15 4 -26 6 -11 9 -29 6 -39 -3 -10 -1 -17 3 -14 12
7 23 -13 14 -26 -4 -8 -9 -7 -15 2 -7 11 -9 11 -10 2 -1 -7 -2 -17 -3 -23 0
-5 -5 -9 -11 -7 -5 1 -9 5 -8 9 9 26 12 68 4 68 -4 0 -8 -10 -7 -22 0 -13 -4
-23 -11 -23 -6 0 -15 -4 -20 -8 -4 -5 -3 -7 2 -5 6 1 10 -1 10 -7 0 -5 -3 -9
-7 -7 -8 2 -12 -22 -9 -42 1 -5 -5 -6 -13 -3 -20 8 -43 -20 -29 -34 8 -8 11
-7 10 2 -1 8 3 14 8 14 6 0 9 -4 7 -8 -1 -5 2 -6 8 -2 5 3 10 4 10 1 0 -2 3
-11 6 -19 3 -8 -2 -17 -12 -21 -12 -5 -15 -2 -10 11 6 15 5 16 -6 5 -7 -7 -13
-33 -13 -58 -1 -40 0 -44 12 -28 7 10 16 14 20 11 3 -4 -3 -16 -15 -27 -12
-12 -22 -25 -22 -30 0 -6 -7 -10 -15 -10 -9 0 -15 -10 -15 -26 0 -21 -4 -24
-20 -19 -13 4 -20 2 -20 -7 -1 -9 -4 -8 -13 3 -10 14 -14 14 -25 3 -15 -16
-32 -18 -32 -5 0 5 9 12 20 16 16 5 18 9 8 25 -9 14 -16 16 -25 8 -21 -17 -15
0 7 20 18 16 19 23 9 45 -7 15 -17 23 -25 20 -8 -3 -11 -9 -8 -14 3 -5 10 -6
16 -3 8 5 9 1 5 -10 -4 -10 -7 -23 -7 -29 0 -7 -5 -6 -11 3 -8 12 -9 11 -5 -6
5 -15 2 -21 -9 -21 -9 0 -14 6 -11 14 4 9 1 11 -6 7 -8 -5 -9 -2 -4 11 4 11
-1 28 -11 44 -17 25 -19 30 -22 50 -1 8 -30 19 -71 27 -8 2 -16 8 -18 14 -2 5
-9 7 -15 3 -7 -4 -6 1 2 10 12 15 12 17 -3 11 -12 -5 -15 -2 -10 10 6 15 -10
22 -38 17 -7 -1 -12 13 -10 30 1 3 -6 6 -14 6 -8 0 -13 -7 -12 -16 2 -9 -3
-15 -10 -13 -8 1 -11 -2 -8 -7 4 -5 1 -13 -5 -16 -7 -5 -2 -16 13 -33 13 -14
17 -22 11 -18 -9 5 -11 2 -6 -11 6 -16 5 -16 -10 -4 -9 7 -15 17 -12 20 2 4
-2 8 -10 8 -21 0 -18 -14 5 -27 11 -6 20 -15 20 -21 0 -6 -20 6 -44 26 -26 21
-43 42 -40 50 3 7 -8 21 -25 31 -35 21 -48 49 -31 69 13 15 3 24 -23 20 -9 -2
-15 1 -11 6 3 5 1 9 -4 9 -15 0 -21 35 -9 55 7 14 7 16 -3 10 -10 -6 -12 -3
-6 11 4 10 4 15 0 11 -4 -4 -13 -2 -19 3 -14 11 -29 -11 -34 -49 0 -6 -10 -8
-21 -6 -11 2 -25 -4 -31 -13 -11 -17 -10 -15 6 33 5 16 4 15 -7 -3 -8 -12 -17
-19 -21 -16 -10 11 -9 26 2 20 5 -3 12 1 15 10 6 15 9 15 34 -1 15 -10 21 -12
15 -4 -13 13 -19 38 -7 26 4 -3 13 1 21 9 8 8 19 11 24 8 13 -7 38 25 39 49 0
9 5 17 11 17 5 0 7 -5 3 -12 -4 -7 -3 -8 4 -4 7 4 12 3 12 -3 0 -5 -5 -13 -10
-16 -6 -4 -8 -11 -4 -16 3 -5 1 -16 -6 -24 -7 -9 -8 -15 0 -20 6 -4 7 -13 2
-23 -12 -24 -8 -47 7 -44 7 1 10 -3 6 -10 -4 -7 1 -4 9 6 9 11 17 17 17 13 1
-4 2 -13 3 -19 1 -7 8 -12 17 -10 9 1 16 -5 16 -13 0 -9 -6 -14 -13 -11 -6 2
-11 -2 -10 -9 3 -23 15 -29 22 -11 3 9 10 13 16 10 5 -3 0 -13 -12 -21 -17
-12 -24 -13 -38 -1 -15 12 -16 11 -3 -5 8 -10 20 -16 28 -13 8 3 11 2 8 -3 -3
-5 0 -13 6 -17 7 -4 9 -3 6 3 -4 6 0 19 8 29 13 19 14 18 11 -1 -2 -11 2 -26
8 -34 9 -12 7 -13 -9 -8 -19 7 -19 6 -2 -7 18 -14 24 -32 7 -21 -6 3 -7 -1 -3
-10 4 -12 8 -13 13 -5 4 7 13 9 19 6 6 -4 11 -2 11 3 0 6 -4 11 -9 11 -13 0
-8 25 9 45 16 19 23 48 10 40 -12 -7 -23 13 -14 26 4 8 9 7 15 -2 7 -11 9 -10
9 5 0 13 -5 16 -17 12 -11 -5 -9 1 7 17 14 13 29 20 35 15 5 -4 14 -8 20 -8 5
0 1 7 -9 15 -11 8 -17 17 -14 20 3 3 13 -1 21 -10 14 -14 16 -13 14 4 0 11 -5
17 -9 15 -9 -6 -168 154 -168 168 0 16 -20 7 -31 -14 -6 -13 -8 -20 -4 -16 9
9 35 -9 35 -24 0 -5 -6 -6 -12 -1 -7 4 -17 8 -23 8 -5 0 -10 12 -10 27 -1 15
3 24 7 22 9 -6 9 -5 11 44 1 19 -1 36 -5 39 -5 2 -8 15 -8 27 0 13 -7 29 -15
36 -8 7 -15 18 -15 24 0 6 -11 33 -25 60 -14 27 -25 59 -25 71 0 30 -36 101
-55 109 -9 3 -25 6 -36 6 -33 0 -69 44 -69 85 0 22 4 34 10 30 6 -3 10 1 10 9
0 8 -5 18 -10 21 -6 4 -10 18 -10 33 -1 15 -2 70 -4 122 -2 52 -1 86 1 75 10
-40 20 -34 17 10 -2 42 13 75 35 75 4 0 8 14 9 31 0 17 5 36 11 43 6 7 9 15 6
18 -3 3 4 13 15 23 11 10 20 23 20 28 0 6 -15 -7 -34 -28 -19 -21 -33 -42 -30
-47 3 -4 -2 -15 -10 -24 -9 -9 -14 -20 -11 -25 4 -5 0 -9 -8 -9 -8 0 -18 7
-21 16 -3 8 -2 13 3 10 4 -3 13 7 20 22 11 25 10 26 -4 8 -15 -20 -15 -20 -16
0 0 10 -2 28 -4 39 -10 60 -13 105 -5 105 4 0 7 11 6 24 -2 14 1 30 5 38 5 7
9 8 9 2 0 -6 7 -11 15 -11 18 0 20 27 3 28 -10 0 -10 2 0 6 14 5 47 63 44 76
-1 5 2 6 7 3 5 -4 12 -2 16 4 3 5 -1 10 -9 10 -9 0 -16 4 -16 10 0 6 9 6 25 0
14 -5 24 -5 22 -1 -2 10 12 33 56 89 15 19 27 38 27 41 0 3 -7 -3 -15 -13 -13
-17 -15 -17 -15 -3 0 24 40 43 52 26 8 -11 9 -10 5 2 -7 21 30 56 69 68 16 5
38 12 48 17 14 5 17 4 12 -4 -4 -7 -3 -12 3 -12 5 0 12 4 15 9 9 15 124 46
168 47 14 0 15 -3 5 -15z m-387 -155 c0 -2 -12 -12 -27 -21 l-28 -18 19 21
c17 20 36 29 36 18z m-46 -61 c-25 -19 -40 -19 -24 0 7 8 20 15 28 15 13 0 12
-3 -4 -15z m910 -1290 c4 -14 2 -33 -4 -43 -11 -16 -11 -16 -6 0 3 10 1 28 -5
40 -8 21 -9 20 -4 -5 4 -20 2 -27 -5 -22 -7 4 -4 -7 4 -24 17 -31 30 -43 20
-17 -3 8 0 17 7 22 7 4 10 3 5 -4 -3 -6 3 -17 15 -25 13 -10 22 -28 23 -51 3
-36 -7 -49 -17 -22 -14 35 -62 -3 -64 -49 0 -17 1 -21 4 -11 4 15 7 16 15 5 8
-11 9 -10 4 3 -3 10 -1 28 4 40 5 14 9 17 10 8 0 -13 1 -13 10 0 5 8 10 10 10
5 0 -6 -5 -16 -12 -23 -15 -15 -19 -60 -6 -68 6 -4 17 1 23 10 11 15 13 15 19
1 5 -15 -41 -94 -56 -95 -15 0 -8 17 17 40 29 27 35 52 6 26 -18 -16 -19 -16
-17 1 1 20 -33 27 -56 11 -9 -7 -8 -8 6 -4 14 5 17 2 12 -9 -3 -9 -2 -13 4
-10 23 14 7 -14 -35 -60 -25 -28 -45 -45 -45 -38 0 6 5 15 10 18 6 4 7 11 4
17 -4 6 -2 8 3 5 6 -4 16 -1 22 7 15 18 23 58 10 51 -5 -4 -6 -12 -3 -18 4 -7
4 -9 0 -5 -4 3 -7 9 -7 12 1 4 -5 19 -14 36 -10 18 -11 31 -5 35 6 4 8 10 5
15 -8 13 25 41 38 34 9 -5 9 -4 0 6 -6 7 -9 18 -7 25 3 7 1 16 -5 20 -6 3 -14
-1 -17 -9 -3 -9 -10 -13 -15 -10 -5 3 -9 0 -9 -6 0 -7 7 -10 15 -7 8 4 17 2
20 -2 9 -15 -23 -21 -34 -7 -15 18 4 70 21 60 7 -4 8 -3 4 5 -11 18 3 51 20
44 7 -3 14 -9 14 -15 0 -5 -4 -7 -9 -3 -5 3 -13 0 -17 -6 -5 -8 -3 -9 6 -4 10
6 12 4 7 -8 -4 -10 -2 -16 6 -14 7 1 11 -3 10 -9 -1 -6 5 -11 12 -11 12 0 12
3 3 15 -16 19 -20 76 -7 108 11 29 24 25 33 -11z m-611 -201 c-3 -7 -12 -10
-21 -6 -15 5 -16 4 -2 -13 8 -10 10 -16 4 -12 -24 14 -41 -61 -18 -77 14 -10
13 -14 -5 -30 -12 -11 -21 -17 -22 -15 0 2 -2 12 -4 22 -2 9 2 17 8 17 7 0 0
10 -15 21 -23 17 -26 23 -16 39 9 13 16 16 24 9 8 -7 15 -6 20 2 5 8 3 9 -6 4
-9 -6 -11 -4 -5 5 6 9 4 11 -5 5 -9 -6 -11 -4 -5 5 6 9 4 11 -5 5 -9 -6 -11
-4 -5 4 5 9 10 10 18 2 15 -15 24 -14 24 4 0 8 -5 11 -10 8 -6 -4 -7 -1 -2 7
5 8 4 11 -2 7 -5 -3 -10 0 -10 7 0 8 6 12 14 9 7 -3 13 -2 13 1 0 11 -70 71
-83 71 -21 1 -36 -28 -26 -47 9 -17 5 -22 -14 -19 -5 1 -6 -3 -2 -9 3 -6 11
-7 17 -4 7 5 8 2 3 -6 -6 -9 -4 -11 5 -5 9 6 11 4 5 -5 -5 -8 -4 -11 3 -6 7 4
9 -1 7 -15 -3 -17 -1 -19 10 -9 7 6 16 7 18 3 8 -13 -5 -28 -26 -29 -10 -1
-16 1 -13 4 13 12 -16 32 -33 22 -13 -6 -18 -5 -18 5 0 8 7 11 16 7 14 -5 14
-3 2 11 -7 9 -10 17 -6 17 4 0 2 6 -4 14 -9 10 -9 16 -1 21 6 4 9 13 6 21 -3
7 -1 16 5 20 6 3 8 13 5 21 -4 9 -2 11 7 6 18 -11 37 -13 37 -3 0 5 -4 12 -10
15 -5 3 -15 15 -21 27 -6 11 25 -17 69 -62 44 -46 78 -89 75 -96z m-68 28 c-5
-29 -10 -35 -31 -38 -9 -1 -13 0 -10 3 3 4 -1 15 -11 25 -9 10 -13 18 -9 18 4
0 2 9 -4 19 -6 11 -6 22 -1 25 13 8 29 -16 26 -41 -1 -12 3 -19 8 -16 6 3 7 1
3 -5 -3 -6 -2 -13 3 -17 6 -3 8 6 5 21 -3 19 -1 24 8 18 7 -4 3 4 -9 18 -31
33 -29 47 2 18 17 -16 23 -31 20 -48z m535 16 c0 -19 -18 -44 -25 -36 -4 3 0
15 7 27 15 24 18 26 18 9z m-800 -68 c0 -18 -19 -11 -30 11 -11 19 -10 20 9 9
12 -6 21 -15 21 -20z m750 -9 c0 -12 -20 -25 -27 -18 -7 7 6 27 18 27 5 0 9
-4 9 -9z m190 -21 c0 -5 -4 -10 -10 -10 -5 0 -10 5 -10 10 0 6 5 10 10 10 6 0
10 -4 10 -10z m-20 -55 l-23 -24 26 2 c13 1 35 13 47 27 17 20 20 21 15 6 -3
-11 -1 -22 5 -26 22 -13 -1 -38 -31 -35 -21 3 -32 -1 -39 -16 -6 -11 -9 -23
-6 -27 7 -12 -12 -38 -21 -28 -4 5 -2 11 6 14 11 4 11 6 0 13 -11 6 -10 12 4
27 16 17 16 20 3 25 -9 4 -22 -1 -31 -9 -19 -20 -20 -30 0 -14 8 7 15 8 15 2
0 -17 -25 -31 -40 -22 -8 5 -11 13 -6 17 4 4 26 29 49 55 22 26 43 45 46 43 2
-3 -6 -16 -19 -30z m-263 -20 c0 -8 -6 -16 -14 -19 -15 -6 -15 -4 -7 18 8 20
21 21 21 1z m186 -67 c10 -11 16 -22 13 -26 -4 -3 -12 3 -20 13 -7 10 -18 15
-24 11 -7 -4 -12 -3 -12 3 0 5 5 11 12 13 8 3 6 7 -4 10 -12 5 -15 1 -14 -16
2 -13 6 -28 10 -34 4 -6 0 -22 -9 -36 -16 -24 -16 -24 8 -22 20 3 24 -1 24
-23 0 -14 -2 -20 -4 -13 -4 10 -8 10 -21 0 -13 -11 -15 -10 -10 4 5 12 1 16
-18 13 -31 -3 -30 6 2 38 20 20 23 30 15 45 -11 21 -10 40 4 61 7 13 10 12 19
-4 6 -10 19 -27 29 -37z m-696 20 c-3 -8 -6 -5 -6 6 -1 11 2 17 5 13 3 -3 4
-12 1 -19z m212 -64 c-8 -10 -9 -15 -2 -11 6 4 15 2 19 -4 5 -8 3 -9 -5 -5 -8
5 -12 3 -10 -5 3 -27 -1 -40 -12 -34 -6 4 -8 13 -5 20 3 8 0 15 -5 17 -7 2 -6
13 2 31 8 18 16 24 22 18 7 -7 5 -16 -4 -27z m476 19 c12 -17 14 -17 34 1 27
24 27 16 1 -14 -12 -13 -18 -29 -16 -36 3 -8 -1 -11 -10 -7 -9 3 -13 12 -10
22 4 11 2 11 -9 -3 -8 -11 -18 -17 -22 -13 -3 4 2 16 12 27 10 11 13 20 7 20
-7 0 -12 5 -12 10 0 15 11 12 25 -7z m-190 -33 c3 -5 1 -10 -4 -10 -6 0 -11 5
-11 10 0 6 2 10 4 10 3 0 8 -4 11 -10z m18 -44 c8 5 7 2 -1 -7 -11 -12 -14
-12 -22 1 -5 8 -10 20 -10 25 1 6 5 2 11 -8 6 -9 16 -14 22 -11z m-109 -73 c8
-16 15 -22 16 -14 0 8 2 12 5 9 4 -3 3 -18 -1 -33 -5 -20 -9 -24 -16 -13 -6 9
-7 5 -3 -11 5 -16 4 -21 -4 -17 -6 4 -16 -4 -23 -18 -9 -20 -14 -23 -25 -15
-7 6 -13 19 -13 28 0 14 2 14 10 1 23 -37 56 47 36 93 -13 28 2 20 18 -10z
m-208 -12 c0 -11 -5 -17 -13 -14 -17 6 -17 20 0 26 6 3 12 6 12 6 1 1 1 -7 1
-18z m258 -25 c-10 -8 -21 -12 -24 -9 -3 2 4 11 14 19 11 7 22 12 25 9 2 -3
-4 -12 -15 -19z m-1269 -26 c3 -5 2 -10 -4 -10 -5 0 -13 5 -16 10 -3 6 -2 10
4 10 5 0 13 -4 16 -10z m1305 -10 c-8 -5 -17 -7 -19 -4 -3 3 1 9 9 14 8 5 17
7 19 4 3 -3 -1 -9 -9 -14z m-40 -2 c0 -4 -7 -8 -15 -8 -19 0 -19 -17 -1 -35
12 -12 15 -12 20 0 3 10 -1 15 -12 15 -15 1 -15 2 1 11 10 6 19 9 20 7 1 -2
17 -20 36 -40 32 -35 33 -37 17 -59 -9 -13 -16 -21 -17 -19 0 3 -2 16 -5 29
-4 20 -2 22 11 11 8 -7 15 -9 15 -4 0 5 -13 18 -28 29 -19 13 -23 14 -14 3 12
-15 9 -16 -24 -13 -22 1 -43 10 -51 21 -7 10 -13 14 -13 9 0 -4 -3 -5 -7 -2
-3 4 5 17 18 30 24 23 49 31 49 15z m45 -18 c3 -5 1 -10 -4 -10 -6 0 -11 5
-11 10 0 6 2 10 4 10 3 0 8 -4 11 -10z m-89 -86 c-22 -16 -36 -10 -18 8 7 7
12 17 12 22 0 6 -7 1 -15 -11 -8 -12 -12 -29 -8 -39 5 -12 3 -15 -6 -9 -10 6
-11 3 -2 -14 8 -15 9 -21 1 -21 -6 0 -8 -6 -4 -12 4 -8 3 -10 -2 -5 -5 5 -9
27 -9 50 -1 30 5 47 20 59 18 15 22 15 35 2 13 -14 13 -17 -4 -30z m-1162 11
c15 -14 31 -23 36 -20 9 6 21 -35 14 -47 -6 -9 -45 9 -56 26 -4 6 -6 17 -3 24
2 6 0 12 -4 12 -5 0 -11 7 -15 15 -8 21 -3 19 28 -10z m1235 1 c10 -11 8 -16
-9 -21 -11 -3 -18 -11 -15 -16 4 -5 2 -9 -4 -9 -7 0 -8 33 -2 58 2 7 20 0 30
-12z m-50 -27 c-16 -10 -23 -4 -14 10 3 6 11 8 17 5 6 -4 5 -9 -3 -15z m-19
-20 c0 -6 -4 -7 -10 -4 -5 3 -10 1 -10 -5 0 -7 6 -10 14 -7 7 3 19 0 25 -6 8
-8 11 -8 11 1 0 7 -4 12 -10 12 -5 0 -10 5 -10 11 0 8 5 7 16 -2 14 -11 18
-10 30 6 8 10 17 15 21 10 5 -4 2 -10 -5 -12 -9 -3 -10 -9 -3 -17 12 -14 -4
-45 -16 -32 -4 5 -2 11 5 13 6 3 9 9 6 14 -3 6 -14 1 -24 -11 -11 -13 -21 -17
-25 -10 -4 7 -12 7 -25 0 -19 -10 -20 -7 -11 53 1 11 21 -2 21 -14z m100 -9
c0 -5 -4 -10 -10 -10 -5 0 -10 5 -10 10 0 6 5 10 10 10 6 0 10 -4 10 -10z
m-1250 -19 c0 -6 -4 -13 -10 -16 -5 -3 -10 1 -10 9 0 9 5 16 10 16 6 0 10 -4
10 -9z m1270 -2 c0 -5 -4 -7 -10 -4 -5 3 -10 1 -10 -5 0 -6 -5 -8 -11 -4 -8 4
-7 9 2 15 19 12 29 11 29 -2z"/>
<path d="M1320 2340 c0 -5 5 -10 10 -10 6 0 10 5 10 10 0 6 -4 10 -10 10 -5 0
-10 -4 -10 -10z"/>
<path d="M1195 2300 c-16 -7 -17 -9 -3 -9 9 -1 20 4 23 9 7 11 7 11 -20 0z"/>
<path d="M1395 2300 c-4 -7 -1 -10 6 -9 13 3 66 -5 114 -17 15 -4 14 -1 -5 9
-36 21 -106 31 -115 17z"/>
<path d="M1500 2306 c0 -2 28 -13 63 -26 34 -12 69 -27 77 -33 13 -10 13 -9 0
4 -23 24 -140 70 -140 55z"/>
<path d="M1090 2288 c0 -5 4 -7 9 -4 5 4 11 2 13 -3 1 -5 11 -3 22 4 17 13 16
14 -13 13 -17 -1 -31 -5 -31 -10z"/>
<path d="M1253 2283 c-32 -6 -28 -18 6 -19 21 -1 28 3 24 12 -3 8 -6 13 -7 13
0 -1 -11 -4 -23 -6z"/>
<path d="M1291 2287 c2 -1 15 -11 28 -22 l24 -20 -14 23 c-8 12 -20 22 -28 22
-8 0 -12 -1 -10 -3z"/>
<path d="M1368 2263 c7 -3 16 -2 19 1 4 3 -2 6 -13 5 -11 0 -14 -3 -6 -6z"/>
<path d="M1405 2260 c3 -5 16 -10 28 -9 21 0 21 1 2 9 -28 12 -37 12 -30 0z"/>
<path d="M1190 2250 c-12 -8 -11 -10 8 -10 12 0 22 5 22 10 0 13 -11 13 -30 0z"/>
<path d="M1467 2253 c-4 -6 12 -10 36 -10 24 -1 71 -13 105 -26 34 -14 59 -21
56 -15 -5 7 -2 9 8 6 8 -4 15 0 15 7 0 10 -5 11 -18 4 -18 -9 -24 -8 -76 19
-31 16 -119 26 -126 15z"/>
<path d="M1059 2233 c-13 -16 -12 -17 4 -4 9 7 17 15 17 17 0 8 -8 3 -21 -13z"/>
<path d="M1365 2240 c-3 -5 1 -10 9 -10 9 0 16 5 16 10 0 6 -4 10 -9 10 -6 0
-13 -4 -16 -10z"/>
<path d="M1145 2230 c-3 -5 -2 -10 4 -10 5 0 13 5 16 10 3 6 2 10 -4 10 -5 0
-13 -4 -16 -10z"/>
<path d="M1195 2220 c-8 -13 5 -13 25 0 13 8 13 10 -2 10 -9 0 -20 -4 -23 -10z"/>
<path d="M1500 2227 c3 -3 23 -10 44 -16 22 -5 35 -6 30 -2 -9 9 -83 27 -74
18z"/>
<path d="M1300 2214 c0 -2 9 -8 20 -14 11 -6 20 -7 20 -2 0 6 -9 12 -20 15
-11 3 -20 3 -20 1z"/>
<path d="M1370 2212 c8 -4 28 -15 43 -26 15 -10 30 -16 34 -12 3 3 2 6 -4 6
-5 0 -20 9 -33 20 -13 11 -30 20 -39 19 -14 0 -14 -1 -1 -7z"/>
<path d="M1445 2210 c28 -12 37 -12 30 0 -3 6 -16 10 -28 9 -21 0 -21 -1 -2
-9z"/>
<path d="M1709 2201 c11 -20 51 -35 51 -20 0 5 -7 9 -15 9 -8 0 -15 4 -15 9 0
5 -7 11 -15 15 -12 4 -13 2 -6 -13z"/>
<path d="M1100 2198 c0 -3 -26 -21 -57 -38 -31 -18 -65 -42 -75 -54 -22 -25
-41 -67 -34 -74 3 -3 9 4 12 14 18 51 87 100 209 150 l30 12 -42 -1 c-24 -1
-43 -5 -43 -9z"/>
<path d="M1265 2188 c27 -16 45 -18 45 -6 0 6 -7 8 -15 4 -8 -3 -15 -1 -15 4
0 6 -8 10 -17 10 -16 -1 -16 -2 2 -12z"/>
<path d="M1509 2192 c11 -8 11 -10 0 -15 -8 -2 -2 -4 13 -3 34 1 31 20 -3 24
-17 2 -20 0 -10 -6z"/>
<path d="M1180 2186 c0 -2 9 -6 20 -9 11 -3 18 -1 14 4 -5 9 -34 13 -34 5z"/>
<path d="M1465 2180 c3 -5 10 -10 16 -10 5 0 9 5 9 10 0 6 -7 10 -16 10 -8 0
-12 -4 -9 -10z"/>
<path d="M1573 2174 c-9 -9 -6 -13 15 -17 34 -7 36 -5 14 14 -14 12 -21 13
-29 3z"/>
<path d="M1130 2170 c-8 -5 -10 -10 -5 -10 6 0 17 5 25 10 8 5 11 10 5 10 -5
0 -17 -5 -25 -10z"/>
<path d="M1667 2169 c7 -7 15 -10 18 -7 3 3 -2 9 -12 12 -14 6 -15 5 -6 -5z"/>
<path d="M1250 2160 c8 -5 20 -10 25 -10 6 0 3 5 -5 10 -8 5 -19 10 -25 10 -5
0 -3 -5 5 -10z"/>
<path d="M1349 2156 c15 -18 61 -30 73 -18 6 6 3 9 -9 9 -49 0 -59 3 -43 13
12 8 10 10 -9 10 -19 0 -21 -3 -12 -14z"/>
<path d="M1204 2148 c-4 -6 -3 -8 3 -5 6 4 16 0 23 -8 14 -17 35 -21 25 -5
-12 19 -43 31 -51 18z"/>
<path d="M1504 2146 c17 -14 17 -16 4 -16 -9 0 -20 -4 -23 -10 -4 -7 3 -7 20
0 15 6 31 7 37 4 7 -4 8 -2 4 4 -10 17 9 15 24 -3 7 -8 16 -12 21 -9 5 3 15 2
22 -3 14 -9 57 -12 57 -3 0 5 -61 22 -165 46 -20 5 -20 5 -1 -10z"/>
<path d="M1108 2133 c6 -2 18 -2 25 0 6 3 1 5 -13 5 -14 0 -19 -2 -12 -5z"/>
<path d="M1280 2130 c0 -5 5 -10 10 -10 6 0 10 5 10 10 0 6 -4 10 -10 10 -5 0
-10 -4 -10 -10z"/>
<path d="M1178 2123 c7 -3 16 -2 19 1 4 3 -2 6 -13 5 -11 0 -14 -3 -6 -6z"/>
<path d="M1320 2118 c0 -4 6 -8 13 -8 17 0 69 -54 60 -63 -3 -4 -1 -7 5 -7 23
0 22 20 -2 35 -14 9 -28 24 -31 34 -5 16 -45 24 -45 9z"/>
<path d="M1510 2102 c0 -6 15 -14 33 -17 17 -4 37 -11 42 -15 6 -4 18 -8 28
-9 9 -1 26 -2 37 -3 11 -1 20 -6 20 -11 0 -4 5 -5 12 -1 7 5 8 3 3 -6 -9 -15
12 -30 40 -29 11 0 14 3 8 6 -7 2 -13 10 -13 18 0 12 -37 32 -75 39 -26 5
-102 26 -121 33 -8 3 -14 1 -14 -5z"/>
<path d="M1419 2087 c6 -8 30 -20 53 -27 24 -7 47 -17 53 -22 5 -4 20 -8 35
-8 l25 0 -27 14 c-15 8 -42 17 -60 21 -18 4 -43 13 -55 21 -28 18 -39 18 -24
1z"/>
<path d="M1695 2090 c-3 -5 -3 -10 2 -11 31 -3 49 -11 72 -32 29 -27 70 -51
77 -44 2 2 -8 10 -24 18 -15 8 -29 16 -32 20 -10 11 -77 59 -83 59 -3 0 -9 -4
-12 -10z"/>
<path d="M1810 2090 c0 -5 5 -10 11 -10 5 0 7 5 4 10 -3 6 -8 10 -11 10 -2 0
-4 -4 -4 -10z"/>
<path d="M897 2049 c-15 -18 -23 -37 -20 -42 3 -6 10 -1 14 11 5 12 11 22 15
22 3 0 3 -7 0 -16 -3 -9 -2 -12 5 -9 6 4 8 13 5 20 -2 7 1 18 7 24 6 6 8 13 5
16 -3 3 -17 -9 -31 -26z"/>
<path d="M1067 2069 c7 -7 15 -10 18 -7 3 3 -2 9 -12 12 -14 6 -15 5 -6 -5z"/>
<path d="M1805 2050 c3 -5 11 -10 16 -10 6 0 7 5 4 10 -3 6 -11 10 -16 10 -6
0 -7 -4 -4 -10z"/>
<path d="M1832 1966 c12 -19 31 -39 41 -46 11 -6 2 9 -19 34 -45 55 -52 58
-22 12z"/>
<path d="M904 1953 c-30 -41 -39 -62 -15 -33 23 27 44 60 38 60 -2 0 -12 -12
-23 -27z"/>
<path d="M1860 1969 c0 -15 18 -19 23 -6 3 8 -1 14 -9 14 -8 0 -14 -4 -14 -8z"/>
<path d="M854 1949 c-3 -6 -2 -15 3 -20 5 -5 9 -1 9 11 0 23 -2 24 -12 9z"/>
<path d="M930 1941 c-6 -11 -6 -22 -1 -25 5 -3 11 5 13 19 6 30 2 32 -12 6z"/>
<path d="M897 1905 c-4 -8 -13 -15 -20 -15 -8 0 -14 -7 -14 -16 0 -11 7 -9 26
10 14 14 22 28 19 31 -3 3 -8 -1 -11 -10z"/>
<path d="M821 1894 c0 -11 3 -14 6 -6 3 7 2 16 -1 19 -3 4 -6 -2 -5 -13z"/>
<path d="M845 1899 c-4 -6 -5 -12 -2 -15 2 -3 7 2 10 11 7 17 1 20 -8 4z"/>
<path d="M827 1856 c-4 -10 -7 -25 -6 -34 0 -11 4 -9 10 7 5 13 8 29 6 35 -2
5 -6 2 -10 -8z"/>
<path d="M874 1842 c-10 -7 -27 -42 -20 -42 2 0 11 11 20 25 17 26 17 29 0 17z"/>
<path d="M1698 1756 c12 -5 22 -13 22 -17 0 -9 -27 -6 -36 4 -12 12 -26 8 -18
-5 5 -8 0 -7 -11 2 -11 9 -16 10 -11 3 7 -13 -10 -18 -43 -14 -7 2 -10 -2 -6
-8 3 -6 1 -11 -4 -11 -6 0 -11 9 -11 19 0 10 -7 21 -15 25 -10 4 -15 -1 -15
-14 0 -11 5 -20 10 -20 6 0 10 -4 10 -10 0 -5 -7 -10 -16 -10 -8 0 -12 5 -9
10 12 19 -11 10 -29 -12 -10 -13 -26 -31 -34 -40 -20 -24 -3 -43 40 -45 30 -2
31 -1 9 8 -19 8 -21 12 -11 24 17 20 23 19 35 -7 6 -11 20 -25 33 -29 13 -5
21 -5 18 0 -3 5 1 14 9 21 8 7 15 19 15 28 0 12 5 11 24 -7 24 -23 83 -40 71
-21 -3 5 -11 10 -17 10 -5 0 -23 9 -39 21 -38 27 -121 20 -156 -13 -30 -28
-39 -18 -12 15 12 16 30 27 45 27 14 0 40 6 58 14 20 8 54 12 84 10 43 -3 50
-2 46 11 -5 11 -1 14 12 9 18 -5 18 -5 0 10 -11 9 -25 16 -32 16 -7 0 -18 1
-26 3 -7 2 -3 -1 10 -7z m-102 -112 c15 6 16 4 7 -5 -14 -14 -43 -5 -43 13 0
10 3 9 9 -1 6 -9 16 -11 27 -7z"/>
<path d="M1862 1670 c-1 -58 -3 -116 -4 -130 -1 -14 0 -45 1 -70 l3 -45 8 35
c25 109 28 136 18 194 -19 121 -24 124 -26 16z"/>
<path d="M1931 1754 c0 -11 3 -14 6 -6 3 7 2 16 -1 19 -3 4 -6 -2 -5 -13z"/>
<path d="M1450 1749 c0 -8 4 -20 9 -27 7 -11 9 -11 14 1 3 9 -1 21 -9 27 -11
10 -14 10 -14 -1z"/>
<path d="M1495 1750 c-3 -6 2 -7 12 -4 13 4 12 1 -4 -12 -23 -17 -30 -34 -15
-34 14 0 52 36 52 49 0 14 -36 15 -45 1z"/>
<path d="M1141 1731 c-18 -11 -2 -20 30 -16 15 2 26 -2 26 -9 0 -12 -42 -14
-53 -3 -9 8 -54 -23 -54 -37 0 -8 2 -8 8 0 4 6 30 12 57 12 42 0 122 20 88 21
-6 1 -9 10 -6 21 3 11 0 20 -6 20 -5 0 -8 -7 -5 -15 4 -8 2 -15 -4 -15 -5 0
-12 7 -16 15 -6 16 -43 20 -65 6z"/>
<path d="M1267 1733 c-10 -9 -9 -41 2 -47 4 -3 6 6 3 21 -4 19 -2 24 8 18 9
-5 11 -4 6 3 -8 14 -10 14 -19 5z"/>
<path d="M1030 1720 c0 -6 7 -10 15 -10 8 0 15 2 15 4 0 2 -7 6 -15 10 -8 3
-15 1 -15 -4z"/>
<path d="M1410 1721 c0 -5 7 -14 15 -21 16 -14 18 -10 9 14 -6 17 -24 22 -24
7z"/>
<path d="M993 1707 c-13 -5 -23 -13 -23 -17 0 -13 110 -4 123 10 10 10 8 11
-8 5 -26 -10 -57 -8 -64 3 -4 6 -15 5 -28 -1z"/>
<path d="M1316 1705 c-20 -15 -20 -15 0 -15 12 0 21 7 21 15 0 8 -1 15 -1 15
-1 0 -10 -7 -20 -15z"/>
<path d="M1365 1710 c-7 -11 2 -30 15 -30 4 0 10 6 13 14 6 16 -19 30 -28 16z"/>
<path d="M1758 1703 c7 -3 16 -2 19 1 4 3 -2 6 -13 5 -11 0 -14 -3 -6 -6z"/>
<path d="M1650 1696 c0 -2 7 -9 15 -16 9 -7 15 -8 15 -2 0 5 -7 12 -15 16 -8
3 -15 4 -15 2z"/>
<path d="M841 1663 c0 -12 2 -14 6 -4 5 11 7 11 15 0 8 -12 9 -12 6 0 -6 22
-28 25 -27 4z"/>
<path d="M1242 1650 c25 -34 34 -39 18 -10 -8 16 -8 20 4 20 9 0 20 -9 26 -20
6 -11 15 -20 21 -20 6 0 3 7 -6 16 -9 9 -14 22 -12 28 6 15 -35 15 -45 1 -5
-6 -8 -5 -8 3 0 6 -5 12 -10 12 -6 0 -1 -13 12 -30z"/>
<path d="M1072 1621 c-17 -17 -32 -35 -32 -42 0 -7 14 2 32 20 32 32 32 32 48
12 24 -33 59 -35 66 -5 7 25 19 30 44 14 11 -7 9 -11 -13 -19 -35 -14 -35 -23
1 -15 44 11 47 21 11 43 -52 32 -116 28 -157 -8z m79 -11 c6 0 8 4 5 9 -3 5 1
12 10 15 11 4 14 1 12 -12 -4 -21 -42 -23 -44 -2 0 9 1 10 3 3 3 -7 9 -13 14
-13z"/>
<path d="M1434 1635 c-9 -22 1 -29 15 -11 8 10 9 16 1 21 -5 3 -13 -1 -16 -10z"/>
<path d="M836 1623 c-3 -8 -1 -11 4 -8 6 4 10 -7 10 -25 0 -19 -4 -29 -11 -25
-7 5 -8 -4 -4 -27 3 -18 7 -43 8 -55 0 -12 4 -20 7 -18 12 8 40 -54 47 -102 7
-50 31 -119 39 -110 2 2 0 17 -6 32 -16 43 -48 195 -40 195 5 0 -4 71 -18 133
-1 4 -2 11 -2 15 0 14 -29 10 -34 -5z m26 -98 c3 -14 1 -28 -3 -31 -5 -3 -9 9
-9 25 0 38 6 40 12 6z"/>
<path d="M1635 1621 c-3 -5 -1 -12 4 -15 5 -3 11 1 15 9 6 16 -9 21 -19 6z"/>
<path d="M1297 1597 c-3 -7 3 -13 13 -13 10 0 16 6 13 13 -3 7 -9 13 -13 13
-4 0 -10 -6 -13 -13z"/>
<path d="M1438 1593 c7 -3 16 -2 19 1 4 3 -2 6 -13 5 -11 0 -14 -3 -6 -6z"/>
<path d="M1090 1580 c0 -5 12 -10 28 -10 21 0 24 2 12 10 -20 13 -40 13 -40 0z"/>
<path d="M1485 1570 c10 -11 23 -20 29 -20 6 0 4 5 -4 10 -8 5 -10 10 -5 10
12 0 -16 20 -29 20 -5 0 -1 -9 9 -20z"/>
<path d="M1420 1565 c0 -8 4 -15 10 -15 5 0 7 7 4 15 -4 8 -8 15 -10 15 -2 0
-4 -7 -4 -15z"/>
<path d="M1325 1559 c-11 -16 -1 -19 13 -3 7 8 8 14 3 14 -5 0 -13 -5 -16 -11z"/>
<path d="M1541 1556 c-9 -11 -9 -16 0 -22 7 -4 9 -3 5 4 -3 6 2 15 11 21 10 6
13 11 7 11 -6 0 -17 -6 -23 -14z"/>
<path d="M1186 1551 c-15 -6 -16 -10 -7 -16 7 -4 16 -3 20 2 3 6 13 13 21 16
13 5 13 5 0 6 -8 0 -24 -4 -34 -8z"/>
<path d="M1906 1543 c-6 -14 -5 -15 5 -6 7 7 10 15 7 18 -3 3 -9 -2 -12 -12z"/>
<path d="M1220 1530 c-9 -6 -10 -10 -3 -10 6 0 15 5 18 10 8 12 4 12 -15 0z"/>
<path d="M1930 1515 c-11 -13 -10 -14 4 -9 9 3 16 10 16 15 0 13 -6 11 -20 -6z"/>
<path d="M1550 1460 c0 -5 5 -10 11 -10 5 0 7 5 4 10 -3 6 -8 10 -11 10 -2 0
-4 -4 -4 -10z"/>
<path d="M1310 1435 c-7 -8 -8 -15 -2 -15 5 0 15 7 22 15 7 8 8 15 2 15 -5 0
-15 -7 -22 -15z"/>
<path d="M1465 1431 c-3 -6 1 -11 10 -11 8 0 21 -11 27 -25 10 -22 8 -29 -17
-55 -24 -25 -25 -28 -7 -23 36 9 51 43 38 83 -11 35 -38 51 -51 31z"/>
<path d="M1934 1399 c-1 -37 -1 -39 13 -19 12 17 12 23 1 39 -12 17 -13 15
-14 -20z"/>
<path d="M1249 1406 c-15 -33 -5 -70 26 -90 14 -9 25 -12 25 -7 0 6 -9 15 -20
21 -25 13 -26 56 -3 82 15 17 15 18 -1 18 -9 0 -21 -11 -27 -24z"/>
<path d="M1897 1423 c-10 -9 -9 -23 2 -23 5 0 11 7 15 15 5 15 -5 20 -17 8z"/>
<path d="M830 1408 c1 -17 39 -67 40 -51 0 18 -22 63 -32 63 -4 0 -8 -6 -8
-12z"/>
<path d="M1853 1341 c0 -30 1 -35 4 -16 2 17 9 34 14 40 13 13 11 22 -4 22 -9
0 -14 -15 -14 -46z"/>
<path d="M1290 1362 c0 -13 40 -33 52 -26 7 4 2 12 -13 20 -28 15 -39 17 -39
6z"/>
<path d="M1427 1360 c-16 -5 -34 -7 -42 -4 -7 3 -15 -2 -18 -10 -7 -18 28 -23
38 -6 5 8 11 8 20 0 10 -9 19 -6 34 9 22 22 14 25 -32 11z"/>
<path d="M1016 1313 c-6 -14 -5 -15 5 -6 7 7 10 15 7 18 -3 3 -9 -2 -12 -12z"/>
<path d="M1305 1280 c-3 -6 1 -7 9 -4 18 7 21 14 7 14 -6 0 -13 -4 -16 -10z"/>
<path d="M1585 1280 c3 -5 8 -10 11 -10 2 0 4 5 4 10 0 6 -5 10 -11 10 -5 0
-7 -4 -4 -10z"/>
<path d="M1571 1243 c7 -12 15 -20 18 -17 3 2 -3 12 -13 22 -17 16 -18 16 -5
-5z"/>
<path d="M1730 1250 c-9 -6 -10 -10 -3 -10 6 0 15 5 18 10 8 12 4 12 -15 0z"/>
<path d="M1765 1240 c-3 -5 -1 -10 4 -10 6 0 11 5 11 10 0 6 -2 10 -4 10 -3 0
-8 -4 -11 -10z"/>
<path d="M1370 1216 c6 -6 18 -5 32 2 22 10 21 11 -9 9 -21 -1 -29 -5 -23 -11z"/>
<path d="M1320 1190 c-12 -8 -11 -10 8 -10 12 0 22 5 22 10 0 13 -11 13 -30 0z"/>
<path d="M1430 1189 c0 -5 10 -9 22 -9 12 0 18 3 14 7 -10 11 -36 12 -36 2z"/>
<path d="M1140 1178 c0 -4 4 -8 9 -8 6 0 12 4 15 8 3 5 -1 9 -9 9 -8 0 -15 -4
-15 -9z"/>
<path d="M1484 1181 c6 -10 -6 -12 -50 -11 -33 1 -66 0 -74 -3 -8 -3 -33 -8
-55 -11 -37 -5 -38 -4 -21 9 25 19 16 19 -20 0 -16 -8 -39 -15 -52 -15 -13 0
-21 -4 -18 -8 5 -9 65 -8 106 2 23 5 224 17 278 17 12 -1 22 4 22 9 0 6 -20
10 -44 10 -24 0 -52 3 -62 7 -12 4 -15 3 -10 -6z"/>
<path d="M1338 1123 c7 -3 16 -2 19 1 4 3 -2 6 -13 5 -11 0 -14 -3 -6 -6z"/>
<path d="M1435 1121 c-3 -5 -2 -12 3 -15 5 -3 9 1 9 9 0 17 -3 19 -12 6z"/>
<path d="M1360 1100 c0 -5 6 -10 13 -10 9 0 12 -10 9 -30 -2 -17 0 -30 6 -30
18 0 25 22 11 32 -11 7 -11 11 -1 15 6 2 12 12 12 21 0 13 -2 14 -9 3 -6 -9
-11 -10 -15 -2 -9 14 -26 14 -26 1z"/>
<path d="M1756 1035 c-9 -13 -42 -42 -75 -64 -32 -22 -62 -48 -65 -58 -6 -14
-3 -13 14 5 11 12 26 22 32 22 14 0 -20 -38 -45 -52 -13 -7 -23 -6 -30 1 -8 8
-8 11 1 11 7 0 12 4 12 10 0 5 -16 -1 -36 -15 -61 -42 -229 -63 -284 -36 -24
12 -24 11 -5 -4 11 -9 31 -19 44 -22 33 -8 175 13 217 33 51 24 52 10 2 -16
-87 -46 -266 -35 -326 20 -9 9 -39 28 -65 43 -26 16 -64 43 -84 60 -20 18 -32
25 -27 16 18 -32 155 -132 221 -161 63 -28 170 -35 230 -15 93 31 212 114 197
138 -3 5 0 9 6 9 6 0 17 6 23 13 7 7 28 30 46 50 19 20 30 37 24 37 -6 0 -18
-11 -27 -25z"/>
<path d="M1152 1018 c2 -6 10 -14 16 -16 7 -2 10 2 6 12 -7 18 -28 22 -22 4z"/>
<path d="M1368 983 c7 -3 16 -2 19 1 4 3 -2 6 -13 5 -11 0 -14 -3 -6 -6z"/>
<path d="M1237 766 c-3 -8 1 -20 9 -26 10 -9 14 -9 14 -1 0 6 -4 11 -10 11 -5
0 -7 7 -4 15 4 8 4 15 1 15 -3 0 -7 -6 -10 -14z"/>
<path d="M1602 744 l-37 -36 43 32 c23 17 42 34 42 36 0 10 -13 1 -48 -32z"/>
<path d="M1280 717 c8 -8 26 -18 40 -21 23 -7 24 -6 5 6 -11 7 -22 13 -25 13
-3 0 -12 4 -20 9 -13 8 -13 7 0 -7z"/>
<path d="M1520 720 c-9 -6 -10 -10 -3 -10 6 0 15 5 18 10 8 12 4 12 -15 0z"/>
<path d="M1395 680 c-3 -6 1 -7 9 -4 18 7 21 14 7 14 -6 0 -13 -4 -16 -10z"/>
<path d="M1458 683 c-10 -2 -18 -9 -18 -14 0 -13 12 -11 34 6 20 15 16 17 -16
8z"/>
<path d="M1271 618 c-14 -23 -14 -23 19 -32 16 -5 20 -4 12 2 -7 5 -10 16 -7
24 10 24 -9 29 -24 6z"/>
<path d="M1224 576 c0 -27 4 -33 21 -32 14 1 21 -6 23 -21 2 -13 7 -23 12 -23
5 0 17 -3 27 -7 16 -6 16 -5 4 10 -7 9 -18 14 -25 10 -6 -4 -4 2 4 12 9 11 10
16 3 11 -7 -4 -13 -3 -13 2 0 22 28 19 40 -4 8 -13 19 -24 27 -24 17 0 13 -21
-7 -37 -8 -6 -12 -15 -7 -19 4 -4 7 -2 7 5 0 7 5 9 10 6 8 -5 8 -11 0 -20 -8
-9 -5 -12 12 -11 13 1 26 -3 30 -9 5 -6 8 -3 8 7 0 9 -4 20 -10 23 -5 3 -10 1
-10 -4 0 -6 -4 -11 -9 -11 -4 0 -7 20 -5 45 3 35 1 43 -10 39 -11 -4 -13 1
-10 18 4 21 4 21 -5 3 -8 -18 -10 -17 -10 10 -1 17 -5 26 -9 20 -4 -5 -18 -12
-32 -13 -14 -2 -22 -1 -18 3 6 6 -32 45 -44 45 -2 0 -4 -15 -4 -34z m40 -11
c3 -8 -2 -12 -11 -11 -9 2 -17 10 -19 19 -2 18 22 12 30 -8z"/>
<path d="M1695 600 c-3 -6 1 -7 9 -4 18 7 21 14 7 14 -6 0 -13 -4 -16 -10z"/>
<path d="M1670 571 c0 -6 4 -12 8 -15 5 -3 9 1 9 9 0 8 -4 15 -9 15 -4 0 -8
-4 -8 -9z"/>
<path d="M1467 371 c-25 -16 -26 -19 -12 -37 11 -14 15 -15 14 -4 -3 28 1 41
10 35 5 -3 13 0 16 6 12 18 0 19 -28 0z"/>
<path d="M1845 751 c-4 -7 -2 -18 4 -24 6 -6 11 -7 11 -1 0 5 5 2 10 -6 5 -8
10 -10 10 -4 0 5 -6 18 -13 29 -11 13 -16 15 -22 6z"/>
<path d="M1197 659 c7 -7 15 -10 18 -7 3 3 -2 9 -12 12 -14 6 -15 5 -6 -5z"/>
<path d="M1075 640 c10 -11 20 -20 23 -20 3 0 -3 9 -13 20 -10 11 -20 20 -23
20 -3 0 3 -9 13 -20z"/>
<path d="M1146 568 c3 -5 10 -6 15 -3 13 9 11 12 -6 12 -8 0 -12 -4 -9 -9z"/>
<path d="M1844 509 c-3 -6 -3 -13 0 -16 3 -4 6 -1 6 5 0 6 7 9 15 6 8 -4 15
-4 15 -1 0 11 -30 16 -36 6z"/>
<path d="M300 66 c0 -2 7 -9 15 -16 9 -7 15 -8 15 -2 0 5 -7 12 -15 16 -8 3
-15 4 -15 2z"/>
<path d="M1495 100 c3 -5 8 -10 11 -10 2 0 4 5 4 10 0 6 -5 10 -11 10 -5 0 -7
-4 -4 -10z"/>
<path d="M1936 684 c-8 -21 -8 -24 5 -24 5 0 8 4 5 9 -4 5 -1 11 6 13 8 3 9 6
1 11 -6 4 -14 0 -17 -9z"/>
<path d="M2061 614 c0 -11 3 -14 6 -6 3 7 2 16 -1 19 -3 4 -6 -2 -5 -13z"/>
<path d="M968 603 c-3 -13 -3 -25 2 -28 4 -2 7 -17 7 -32 l0 -28 -14 33 c-12
31 -33 36 -33 9 0 -7 4 -6 10 3 6 9 10 10 10 3 0 -6 3 -19 7 -29 5 -13 3 -15
-8 -8 -8 4 -23 10 -34 11 -16 2 -17 1 -5 -6 8 -5 18 -7 22 -5 4 3 8 -7 9 -23
0 -27 1 -27 9 -5 5 12 12 22 16 22 3 0 3 -7 0 -16 -4 -10 -2 -13 6 -8 7 5 9 0
6 -14 -8 -29 0 -28 11 1 6 14 4 46 -3 83 -9 44 -14 53 -18 37z"/>
<path d="M837 573 c7 -17 30 -16 36 1 4 9 -2 13 -17 12 -14 0 -22 -6 -19 -13z"/>
<path d="M887 583 c-10 -9 -9 -23 2 -23 5 0 11 7 15 15 5 15 -5 20 -17 8z"/>
<path d="M2061 574 c0 -11 3 -14 6 -6 3 7 2 16 -1 19 -3 4 -6 -2 -5 -13z"/>
<path d="M2151 581 c-11 -7 -9 -10 7 -15 11 -4 22 -15 24 -24 3 -11 6 -7 10
11 3 15 1 30 -5 34 -6 3 -7 1 -3 -5 4 -7 1 -12 -9 -12 -9 0 -13 5 -10 10 8 12
4 12 -14 1z"/>
<path d="M2202 540 c0 -14 2 -19 5 -12 2 6 2 18 0 25 -3 6 -5 1 -5 -13z"/>
<path d="M882 520 c0 -19 2 -27 5 -17 2 9 2 25 0 35 -3 9 -5 1 -5 -18z"/>
<path d="M2008 488 l-1 -63 -7 55 c-6 52 -7 53 -8 13 -1 -23 -5 -48 -8 -57 -4
-12 0 -16 15 -16 19 0 21 6 21 65 0 83 -9 85 -12 3z"/>
<path d="M2032 463 l2 -88 6 75 c6 67 7 70 8 23 2 -43 5 -53 20 -52 10 0 12 3
5 6 -8 3 -13 24 -13 54 0 32 -4 49 -12 50 -7 0 -4 4 7 9 19 8 19 9 -2 9 -22 1
-23 -2 -21 -86z"/>
<path d="M2122 530 c0 -14 2 -19 5 -12 2 6 2 18 0 25 -3 6 -5 1 -5 -13z"/>
<path d="M2240 515 c0 -19 2 -35 4 -35 2 0 6 16 8 35 2 19 0 35 -4 35 -4 0 -8
-16 -8 -35z"/>
<path d="M2274 543 c4 -7 2 -13 -3 -13 -6 0 -11 -15 -11 -34 0 -30 -2 -33 -27
-30 -28 4 -28 4 -3 -5 26 -9 74 -13 53 -4 -7 2 -13 19 -13 36 0 25 3 29 10 17
8 -12 9 -10 7 7 -2 12 -7 26 -12 30 -4 5 -5 2 -1 -4z"/>
<path d="M2140 531 c0 -5 6 -11 14 -14 9 -4 16 -24 19 -54 l3 -48 2 48 c1 29
6 46 12 42 6 -3 10 -4 10 -1 0 3 -13 12 -30 21 -16 9 -30 11 -30 6z"/>
<path d="M770 508 c0 -19 -2 -20 -10 -8 -8 13 -10 12 -10 -2 0 -11 7 -18 19
-18 14 0 17 6 13 25 -5 31 -12 32 -12 3z"/>
<path d="M836 518 c3 -4 2 -14 -3 -20 -12 -20 -12 -39 0 -31 7 4 8 0 4 -11 -4
-10 -7 -27 -8 -39 0 -21 -1 -21 -9 -2 -8 19 -9 19 -9 -2 -1 -22 13 -31 23 -15
2 4 7 32 11 62 3 30 11 58 18 62 7 4 3 6 -10 5 -12 0 -19 -5 -17 -9z"/>
<path d="M902 500 c0 -14 2 -19 5 -12 2 6 2 18 0 25 -3 6 -5 1 -5 -13z"/>
<path d="M2300 495 c0 -16 4 -25 8 -20 4 6 18 16 32 23 24 12 24 12 1 6 -15
-4 -27 -1 -32 7 -6 10 -9 5 -9 -16z"/>
<path d="M2100 490 c0 -11 4 -20 9 -20 5 0 7 9 4 20 -3 11 -7 20 -9 20 -2 0
-4 -9 -4 -20z"/>
<path d="M2145 500 c3 -5 8 -10 11 -10 2 0 4 5 4 10 0 6 -5 10 -11 10 -5 0 -7
-4 -4 -10z"/>
<path d="M734 472 c2 -25 -1 -32 -11 -28 -8 3 -11 2 -8 -3 3 -5 -3 -12 -12
-14 -16 -4 -16 -5 -1 -6 9 0 19 -11 21 -23 3 -16 4 -14 2 5 -1 15 2 27 7 27 4
0 8 -9 8 -20 0 -15 7 -20 28 -21 15 0 21 -3 14 -6 -10 -4 -10 -8 -1 -19 9 -11
8 -14 -2 -14 -11 0 -11 -2 1 -10 8 -5 10 -10 4 -10 -12 0 -13 -64 -1 -76 4 -4
7 9 7 29 0 20 4 37 10 37 5 0 7 7 4 15 -4 9 0 15 10 15 9 0 16 7 16 15 0 8 -7
15 -15 15 -8 0 -15 5 -15 10 0 6 -11 10 -24 10 -20 0 -25 7 -34 53 -6 28 -10
37 -8 19z"/>
<path d="M2125 490 c5 -8 2 -17 -8 -25 -14 -10 -13 -12 5 -24 11 -7 17 -8 13
-2 -3 6 -2 11 4 11 5 0 12 -8 14 -17 4 -14 5 -12 6 5 0 12 -3 22 -9 22 -5 0
-10 6 -10 14 0 8 -5 18 -12 22 -7 5 -8 3 -3 -6z"/>
<path d="M2392 475 c0 -16 2 -22 5 -12 2 9 2 23 0 30 -3 6 -5 -1 -5 -18z"/>
<path d="M1942 443 l1 -48 4 42 c3 32 8 41 19 36 7 -3 14 0 14 6 0 6 -9 11
-20 11 -17 0 -20 -6 -18 -47z"/>
<path d="M2193 440 c0 -30 2 -43 4 -27 2 15 2 39 0 55 -2 15 -4 2 -4 -28z"/>
<path d="M2347 483 c-14 -13 -7 -23 16 -22 17 1 18 2 4 6 -9 2 -15 9 -12 14 7
10 1 12 -8 2z"/>
<path d="M2410 390 c0 -89 2 -100 18 -99 10 0 12 3 5 6 -9 3 -13 31 -13 89 0
68 3 82 14 78 8 -3 17 -20 19 -37 l4 -32 2 35 c2 30 4 32 12 15 9 -20 9 -20 6
0 -1 11 -7 20 -12 20 -6 1 -20 6 -32 13 l-23 13 0 -101z"/>
<path d="M672 460 c0 -14 2 -19 5 -12 2 6 2 18 0 25 -3 6 -5 1 -5 -13z"/>
<path d="M917 473 c-10 -9 -9 -113 1 -113 4 0 14 5 22 11 12 9 12 10 -4 5 -17
-6 -18 -2 -14 49 3 30 4 55 3 55 -1 0 -5 -3 -8 -7z"/>
<path d="M2322 460 c0 -14 2 -19 5 -12 2 6 2 18 0 25 -3 6 -5 1 -5 -13z"/>
<path d="M1922 450 c0 -14 2 -19 5 -12 2 6 2 18 0 25 -3 6 -5 1 -5 -13z"/>
<path d="M888 415 c3 -36 1 -45 -12 -45 -19 0 -21 -32 -5 -59 7 -10 9 -29 6
-42 -3 -13 -7 -28 -7 -34 -1 -5 -6 -16 -12 -23 -8 -9 -7 -11 6 -6 10 4 15 13
12 20 -3 7 -1 16 4 19 6 4 10 24 10 45 0 21 6 41 13 43 6 3 7 6 1 6 -6 1 -9
23 -6 61 2 33 0 60 -5 60 -4 0 -7 -20 -5 -45z m-5 -75 c-3 -11 -7 -20 -9 -20
-2 0 -4 9 -4 20 0 11 4 20 9 20 5 0 7 -9 4 -20z"/>
<path d="M950 435 c0 -14 4 -25 9 -25 4 0 6 11 3 25 -2 14 -6 25 -8 25 -2 0
-4 -11 -4 -25z"/>
<path d="M1831 444 c0 -11 3 -14 6 -6 3 7 2 16 -1 19 -3 4 -6 -2 -5 -13z"/>
<path d="M1870 450 c0 -5 5 -10 11 -10 5 0 7 5 4 10 -3 6 -8 10 -11 10 -2 0
-4 -4 -4 -10z"/>
<path d="M1961 388 c2 -77 6 -69 11 20 2 28 0 52 -4 52 -5 0 -7 -33 -7 -72z"/>
<path d="M613 390 c0 -36 2 -50 4 -32 2 17 2 47 0 65 -2 17 -4 3 -4 -33z"/>
<path d="M762 430 c0 -14 2 -19 5 -12 2 6 2 18 0 25 -3 6 -5 1 -5 -13z"/>
<path d="M780 430 c0 -11 4 -20 9 -20 5 0 7 9 4 20 -3 11 -7 20 -9 20 -2 0 -4
-9 -4 -20z"/>
<path d="M932 430 c0 -14 2 -19 5 -12 2 6 2 18 0 25 -3 6 -5 1 -5 -13z"/>
<path d="M1051 450 c1 -28 38 -149 39 -130 l2 25 7 -25 c5 -18 3 -27 -8 -32
-12 -5 -10 -7 8 -7 17 -1 22 3 17 15 -3 9 -6 24 -6 35 0 10 -6 19 -14 19 -9 0
-17 15 -21 38 -5 30 -25 82 -24 62z"/>
<path d="M2071 446 c2 -2 15 -9 29 -15 24 -11 24 -11 6 3 -16 13 -49 24 -35
12z"/>
<path d="M2211 428 c1 -21 2 -22 8 -3 3 11 8 -34 11 -100 l6 -120 2 123 c2
103 0 122 -13 122 -9 0 -15 -9 -14 -22z"/>
<path d="M2370 440 c8 -5 20 -10 25 -10 6 0 3 5 -5 10 -8 5 -19 10 -25 10 -5
0 -3 -5 5 -10z"/>
<path d="M2432 425 c0 -16 2 -22 5 -12 2 9 2 23 0 30 -3 6 -5 -1 -5 -18z"/>
<path d="M2493 436 c3 -8 1 -17 -6 -20 -7 -2 -4 -5 7 -5 12 -1 16 4 12 14 -3
8 -1 15 4 15 5 0 11 -33 13 -72 l3 -73 2 78 c2 72 1 77 -19 77 -14 0 -19 -5
-16 -14z"/>
<path d="M984 415 c-3 -14 -4 -37 -2 -50 4 -17 1 -25 -8 -25 -8 0 -14 -4 -14
-9 0 -5 8 -7 18 -5 13 4 17 16 17 60 0 29 -1 54 -2 54 -2 0 -5 -11 -9 -25z"/>
<path d="M2250 325 c0 -98 2 -114 15 -109 13 5 15 -8 15 -80 0 -47 4 -86 9
-86 4 0 6 11 4 24 -4 17 0 25 14 29 16 4 16 5 1 6 -15 1 -18 11 -18 61 0 50
-3 60 -17 61 -15 0 -15 2 2 9 17 7 17 9 3 9 -16 1 -18 12 -18 91 0 75 2 88 15
84 8 -4 15 -1 15 5 0 6 -9 11 -20 11 -19 0 -20 -7 -20 -115z"/>
<path d="M2541 378 c0 -34 3 -56 6 -48 4 8 12 20 19 25 10 7 11 14 3 25 -9 13
-10 12 -5 -2 3 -10 1 -18 -4 -18 -6 0 -10 17 -9 38 0 30 2 33 10 17 8 -19 9
-19 6 -1 -1 11 -8 21 -14 24 -10 3 -13 -13 -12 -60z"/>
<path d="M572 400 c0 -19 2 -27 5 -17 2 9 2 25 0 35 -3 9 -5 1 -5 -18z"/>
<path d="M2323 370 c0 -36 2 -50 4 -32 2 17 2 47 0 65 -2 17 -4 3 -4 -33z"/>
<path d="M2343 370 c0 -36 2 -50 4 -32 2 17 2 47 0 65 -2 17 -4 3 -4 -33z"/>
<path d="M2362 410 c0 -14 2 -19 5 -12 2 6 2 18 0 25 -3 6 -5 1 -5 -13z"/>
<path d="M852 400 c0 -14 2 -19 5 -12 2 6 2 18 0 25 -3 6 -5 1 -5 -13z"/>
<path d="M872 400 c0 -14 2 -19 5 -12 2 6 2 18 0 25 -3 6 -5 1 -5 -13z"/>
<path d="M1045 375 c3 -39 2 -43 -4 -20 l-9 30 -1 -32 c-1 -23 4 -33 14 -33
10 0 15 -11 15 -35 0 -26 4 -35 18 -35 11 -1 6 -6 -13 -15 -32 -14 -25 -19 13
-9 13 4 22 14 22 26 0 13 -5 18 -14 15 -10 -4 -15 9 -19 52 -4 32 -11 68 -17
82 -8 19 -9 15 -5 -26z"/>
<path d="M1286 412 c-2 -4 -1 -14 5 -22 7 -13 9 -13 9 0 0 13 1 13 10 0 11
-17 13 -10 4 14 -7 17 -20 21 -28 8z"/>
<path d="M1833 375 c0 -27 2 -38 4 -22 2 15 2 37 0 50 -2 12 -4 0 -4 -28z"/>
<path d="M1852 362 c2 -56 2 -56 5 -10 3 34 9 48 21 50 13 3 12 5 -5 10 -22 6
-23 4 -21 -50z"/>
<path d="M2137 407 c4 -6 0 -8 -10 -4 -12 5 -17 1 -17 -12 0 -10 6 -21 14 -24
8 -3 16 -18 19 -34 l4 -28 2 29 c0 17 -6 35 -16 43 -17 14 -17 14 0 9 10 -3
15 -2 12 3 -3 5 5 11 17 13 21 3 21 4 -4 9 -17 4 -25 2 -21 -4z"/>
<path d="M2387 400 c3 -11 7 -20 9 -20 2 0 4 9 4 20 0 11 -4 20 -9 20 -5 0 -7
-9 -4 -20z"/>
<path d="M2581 397 c0 -21 1 -21 8 -2 7 16 10 9 17 -30 4 -27 7 -57 6 -66 -2
-9 4 -19 13 -22 8 -4 15 -11 15 -17 0 -6 -4 -8 -10 -5 -6 3 -7 -1 -4 -10 8
-20 -15 -77 -30 -72 -6 2 -11 15 -11 30 0 39 -11 41 -13 2 -2 -31 1 -36 38
-55 40 -20 40 -21 25 -50 -19 -37 -19 -37 5 -50 16 -8 26 -6 50 12 16 12 30
28 30 35 0 7 9 18 19 25 10 6 17 19 14 27 -3 10 4 6 16 -8 12 -13 21 -27 21
-31 0 -13 -34 -22 -38 -11 -4 13 -22 4 -22 -10 0 -6 5 -7 12 -3 8 5 9 2 5 -9
-4 -10 -2 -16 6 -14 6 1 18 -13 26 -31 15 -33 32 -38 39 -11 3 12 2 12 -7 -1
-8 -12 -12 -9 -21 14 -6 16 -13 34 -16 40 -3 6 3 1 14 -11 l20 -23 -2 24 c0
13 -4 22 -8 19 -5 -2 -8 1 -8 6 0 6 5 11 10 11 6 0 3 11 -6 25 -24 37 -12 40
15 5 12 -17 19 -36 15 -42 -4 -7 -3 -8 4 -4 13 8 16 -5 5 -20 -5 -5 0 -1 10 9
19 22 21 33 7 42 -14 9 -12 22 4 28 11 4 13 1 9 -10 -5 -12 -3 -14 6 -8 10 6
11 2 6 -15 -5 -15 -3 -20 3 -16 7 4 8 -4 2 -25 -8 -29 1 -69 16 -69 2 0 0 9
-6 19 -13 25 -13 28 4 28 9 0 12 -7 9 -16 -4 -12 -3 -13 6 -5 13 11 -12 93
-45 151 -26 45 -47 46 -24 2 13 -22 -12 -70 -25 -49 -4 6 1 18 11 26 18 14 18
15 -2 5 -15 -7 -24 -7 -32 1 -16 16 -15 31 1 21 18 -11 37 -13 37 -3 0 5 -4
12 -10 15 -5 3 -10 1 -10 -5 0 -6 -5 -8 -11 -4 -8 4 -2 12 15 21 25 13 26 14
9 41 -49 80 -154 163 -210 168 -28 2 -33 -1 -32 -19z m51 -59 c1 -26 6 -35 17
-33 9 1 16 9 16 18 0 9 4 16 9 16 5 0 12 4 15 10 4 6 11 3 19 -9 10 -16 9 -18
-9 -15 -11 2 -17 0 -14 -5 3 -5 1 -11 -4 -14 -4 -3 -11 -19 -14 -36 -4 -16
-11 -30 -17 -30 -6 0 -8 5 -5 11 4 5 0 18 -8 27 -8 9 -14 24 -14 32 0 8 -3 33
-7 55 -4 28 -3 35 3 24 6 -9 11 -32 13 -51z m22 48 c19 7 28 -22 11 -36 -8 -6
-11 -19 -8 -28 4 -12 3 -14 -4 -7 -6 6 -13 28 -16 50 -3 22 -3 35 0 28 2 -7
10 -10 17 -7z m126 -116 c0 -14 5 -18 18 -13 14 5 13 3 -3 -10 -20 -16 -20
-16 2 -12 16 3 20 0 16 -11 -3 -8 -8 -12 -11 -9 -8 8 -34 -34 -27 -45 3 -6 2
-10 -3 -10 -17 0 -21 29 -6 44 9 9 10 17 4 21 -5 3 -10 2 -10 -4 0 -6 -7 -8
-15 -5 -8 4 -15 10 -15 16 0 5 5 6 10 3 6 -3 10 -1 10 4 0 6 -6 11 -12 12 -10
0 -10 2 0 6 14 6 16 33 2 33 -5 0 -9 -3 -9 -7 1 -5 0 -11 -1 -15 -4 -13 -7
-27 -9 -39 0 -5 -5 -8 -10 -4 -5 3 -12 -4 -16 -15 -5 -16 -10 -18 -25 -10 -25
13 -30 13 -30 -5 0 -8 -4 -15 -10 -15 -6 0 -5 10 2 25 9 21 14 23 32 13 17 -8
19 -8 9 2 -13 14 4 63 19 54 5 -3 4 -12 -3 -20 -6 -8 -9 -17 -5 -21 3 -3 6 -1
6 6 0 7 5 9 12 5 6 -4 8 -3 4 4 -3 6 -2 13 4 17 5 3 10 14 9 23 0 14 -2 13 -9
-3 -8 -18 -9 -18 -9 -2 -1 12 -5 16 -13 11 -9 -5 -9 -3 1 9 7 9 17 14 22 11 5
-3 12 1 15 9 4 12 10 10 30 -10 13 -13 24 -33 24 -43z m-30 -72 c0 -5 -6 -6
-12 -2 -10 6 -10 4 0 -7 17 -19 15 -29 -8 -29 -11 0 -20 5 -20 11 0 5 4 8 9 5
4 -3 6 6 3 19 -3 20 -1 24 12 19 9 -3 16 -10 16 -16z m-70 -20 c0 -5 -4 -6
-10 -3 -6 4 -7 -1 -3 -11 4 -12 3 -15 -5 -10 -8 5 -10 2 -6 -9 5 -11 10 -13
19 -5 6 5 15 7 18 3 4 -3 7 -1 7 5 0 7 -4 12 -10 12 -5 0 -6 8 -3 17 6 14 8
12 15 -9 6 -18 14 -25 24 -21 8 3 14 1 14 -5 0 -15 -28 -22 -34 -9 -4 7 -4 -3
-1 -22 l5 -35 -27 25 c-15 13 -22 17 -15 8 6 -9 8 -20 4 -24 -4 -5 -1 -5 6 -1
16 10 15 -9 -2 -23 -12 -10 -46 -6 -46 6 0 2 7 17 15 33 14 27 14 29 -13 50
-15 12 -19 19 -10 16 11 -3 19 2 23 14 6 19 35 18 35 -2z m168 -83 c-3 -3 -9
2 -12 12 -6 14 -5 15 5 6 7 -7 10 -15 7 -18z"/>
<path d="M2651 364 c0 -11 3 -14 6 -6 3 7 2 16 -1 19 -3 4 -6 -2 -5 -13z"/>
<path d="M2762 265 c0 -16 2 -22 5 -12 2 9 2 23 0 30 -3 6 -5 -1 -5 -18z"/>
<path d="M2640 76 c0 -2 7 -7 16 -10 8 -3 12 -2 9 4 -6 10 -25 14 -25 6z"/>
<path d="M698 365 c2 -25 7 -45 11 -45 3 0 5 20 3 45 -2 25 -7 45 -11 45 -3 0
-5 -20 -3 -45z"/>
<path d="M1001 398 c-1 -10 6 -18 14 -18 8 0 15 8 15 18 0 13 -2 14 -9 3 -7
-11 -9 -11 -14 0 -4 10 -6 9 -6 -3z"/>
<path d="M1088 385 c2 -14 8 -25 12 -25 4 0 5 11 2 25 -2 14 -8 25 -12 25 -4
0 -5 -11 -2 -25z"/>
<path d="M1983 375 c0 -22 2 -30 4 -17 2 12 2 30 0 40 -3 9 -5 -1 -4 -23z"/>
<path d="M2068 398 c24 -12 26 -18 23 -98 -2 -53 7 -68 11 -18 2 18 7 24 18
21 13 -4 13 -3 1 5 -22 15 -23 45 -3 38 15 -5 15 -4 0 8 -10 7 -18 20 -18 29
0 15 -21 28 -43 26 -7 0 -2 -5 11 -11z"/>
<path d="M2302 293 c-2 -122 -2 -123 21 -122 16 1 17 3 5 6 -15 4 -18 21 -21
121 l-3 117 -2 -122z"/>
<path d="M942 393 c9 -2 19 -14 21 -26 4 -18 5 -17 6 6 1 22 -3 27 -21 26 -16
-1 -18 -3 -6 -6z"/>
<path d="M1110 393 c0 -4 5 -15 10 -23 8 -13 10 -13 10 2 0 9 -4 20 -10 23 -5
3 -10 3 -10 -2z"/>
<path d="M2208 370 c-3 -16 -1 -30 4 -30 4 0 8 14 8 30 0 17 -2 30 -4 30 -2 0
-6 -13 -8 -30z"/>
<path d="M2482 393 c13 -3 18 -18 21 -66 l3 -62 2 68 c2 64 1 67 -20 66 -17
-1 -18 -3 -6 -6z"/>
<path d="M634 358 c1 -27 -3 -39 -14 -42 -8 -2 -5 -4 9 -5 17 -1 22 3 17 14
-3 8 -1 15 4 15 5 0 11 -12 13 -27 4 -26 4 -26 6 5 1 22 -4 32 -13 32 -8 0
-17 10 -20 23 -2 12 -4 5 -2 -15z"/>
<path d="M2052 370 c0 -14 2 -19 5 -12 2 6 2 18 0 25 -3 6 -5 1 -5 -13z"/>
<path d="M2270 367 c0 -15 4 -27 9 -27 6 0 8 10 6 21 -6 33 -15 36 -15 6z"/>
<path d="M2432 360 c0 -19 2 -27 5 -17 2 9 2 25 0 35 -3 9 -5 1 -5 -18z"/>
<path d="M2452 370 c0 -14 2 -19 5 -12 2 6 2 18 0 25 -3 6 -5 1 -5 -13z"/>
<path d="M1920 370 c0 -5 -8 -10 -17 -11 -11 0 -13 -3 -5 -6 7 -3 13 -26 13
-56 1 -29 4 -40 6 -24 3 19 10 27 24 27 10 0 19 -4 19 -10 0 -5 -7 -7 -15 -4
-10 4 -15 0 -15 -15 0 -15 6 -21 23 -20 21 0 21 1 2 9 -17 7 -17 9 -2 9 10 1
17 9 17 21 0 15 -7 20 -27 21 -25 0 -26 1 -8 9 20 9 20 9 0 10 -20 1 -20 1 0
10 17 7 17 9 3 9 -11 1 -15 6 -12 16 4 8 3 15 0 15 -3 0 -6 -4 -6 -10z"/>
<path d="M2362 343 c3 -32 0 -43 -12 -47 -9 -2 -5 -4 8 -5 21 -1 22 2 16 42
-9 56 -17 63 -12 10z"/>
<path d="M454 362 c-6 -4 -7 -17 -3 -32 l7 -25 1 28 c1 16 5 26 11 22 6 -3 10
-1 10 4 0 13 -10 14 -26 3z"/>
<path d="M662 363 c9 -2 19 -14 21 -26 4 -18 5 -17 6 6 1 22 -3 27 -21 26 -16
-1 -18 -3 -6 -6z"/>
<path d="M842 350 c0 -14 2 -19 5 -12 2 6 2 18 0 25 -3 6 -5 1 -5 -13z"/>
<path d="M1296 355 c-3 -8 -1 -15 4 -15 6 0 10 7 10 15 0 8 -2 15 -4 15 -2 0
-6 -7 -10 -15z"/>
<path d="M1871 343 c0 -18 3 -33 8 -33 5 0 12 -8 14 -17 4 -14 5 -12 6 5 0 12
-3 22 -8 22 -5 0 -12 12 -14 28 -4 25 -4 25 -6 -5z"/>
<path d="M2032 350 c0 -14 2 -19 5 -12 2 6 2 18 0 25 -3 6 -5 1 -5 -13z"/>
<path d="M2393 320 c0 -30 2 -43 4 -27 2 15 2 39 0 55 -2 15 -4 2 -4 -28z"/>
<path d="M492 335 c0 -16 2 -22 5 -12 2 9 2 23 0 30 -3 6 -5 -1 -5 -18z"/>
<path d="M728 338 c5 -19 7 -20 10 -5 2 9 8 15 13 12 5 -4 9 -1 9 4 0 6 -9 11
-19 11 -15 0 -18 -5 -13 -22z"/>
<path d="M942 340 c0 -14 2 -19 5 -12 2 6 2 18 0 25 -3 6 -5 1 -5 -13z"/>
<path d="M2181 333 c-1 -28 2 -33 22 -32 15 1 17 3 5 6 -9 2 -19 16 -21 31 -4
24 -4 24 -6 -5z"/>
<path d="M2590 300 c0 -35 3 -60 7 -57 7 8 5 108 -3 116 -2 2 -4 -24 -4 -59z"/>
<path d="M921 323 c-1 -23 4 -33 13 -33 8 0 17 -6 19 -12 3 -8 6 -6 6 5 1 9 6
17 11 17 6 0 10 4 10 10 0 6 -9 6 -24 0 -22 -8 -25 -6 -29 18 -4 25 -4 24 -6
-5z"/>
<path d="M1012 330 c0 -14 2 -19 5 -12 2 6 2 18 0 25 -3 6 -5 1 -5 -13z"/>
<path d="M1126 325 c2 -11 4 -30 4 -42 0 -16 6 -23 20 -23 11 0 20 4 20 10 0
5 -7 7 -15 4 -11 -5 -15 1 -14 22 0 25 1 26 9 9 8 -19 9 -19 9 4 1 16 -3 21
-13 18 -8 -3 -17 -1 -19 6 -2 7 -3 3 -1 -8z"/>
<path d="M2052 320 c0 -14 2 -19 5 -12 2 6 2 18 0 25 -3 6 -5 1 -5 -13z"/>
<path d="M2073 285 c0 -33 2 -45 4 -27 2 18 2 45 0 60 -2 15 -4 0 -4 -33z"/>
<path d="M2162 303 c-2 -39 0 -43 21 -42 16 1 17 3 5 6 -11 3 -18 17 -21 41
l-4 37 -1 -42z"/>
<path d="M2458 333 c6 -2 18 -2 25 0 6 3 1 5 -13 5 -14 0 -19 -2 -12 -5z"/>
<path d="M2568 303 c5 -59 10 -63 11 -10 1 26 -3 47 -7 47 -4 0 -6 -17 -4 -37z"/>
<path d="M1778 290 c-2 -22 0 -40 4 -40 5 0 8 18 8 40 0 22 -2 40 -4 40 -2 0
-6 -18 -8 -40z"/>
<path d="M1803 260 c0 -41 2 -58 4 -37 2 20 2 54 0 75 -2 20 -4 3 -4 -38z"/>
<path d="M1983 285 c0 -27 2 -38 4 -22 2 15 2 37 0 50 -2 12 -4 0 -4 -28z"/>
<path d="M2000 319 c0 -5 9 -9 20 -9 11 0 20 2 20 4 0 2 -9 6 -20 9 -11 3 -20
1 -20 -4z"/>
<path d="M2270 304 c0 -14 4 -23 9 -20 5 3 7 15 4 26 -7 28 -13 25 -13 -6z"/>
<path d="M431 288 c0 -21 4 -38 10 -38 5 0 8 4 4 9 -3 5 3 12 12 14 16 4 16 5
1 6 -9 0 -19 11 -21 24 -3 13 -5 8 -6 -15z"/>
<path d="M822 300 c0 -14 2 -19 5 -12 2 6 2 18 0 25 -3 6 -5 1 -5 -13z"/>
<path d="M901 291 c-1 -25 2 -32 13 -28 10 4 16 -3 19 -21 3 -24 4 -23 6 7 1
25 -2 32 -13 28 -10 -4 -16 3 -19 21 -3 24 -4 23 -6 -7z"/>
<path d="M992 300 c0 -14 2 -19 5 -12 2 6 2 18 0 25 -3 6 -5 1 -5 -13z"/>
<path d="M2438 313 c6 -2 18 -2 25 0 6 3 1 5 -13 5 -14 0 -19 -2 -12 -5z"/>
<path d="M2481 279 c-1 -39 2 -48 19 -52 23 -6 28 18 6 30 -8 4 -16 22 -19 38
-3 22 -4 18 -6 -16z"/>
<path d="M412 273 c-2 -39 0 -43 21 -42 16 1 17 3 5 6 -11 3 -18 17 -21 41
l-4 37 -1 -42z"/>
<path d="M460 300 c-9 -6 -10 -10 -3 -10 6 0 15 5 18 10 8 12 4 12 -15 0z"/>
<path d="M494 294 c-18 -14 -18 -15 4 -4 12 6 22 13 22 15 0 8 -5 6 -26 -11z"/>
<path d="M688 303 c6 -2 18 -2 25 0 6 3 1 5 -13 5 -14 0 -19 -2 -12 -5z"/>
<path d="M752 290 c0 -14 2 -19 5 -12 2 6 2 18 0 25 -3 6 -5 1 -5 -13z"/>
<path d="M802 280 c0 -19 2 -27 5 -17 2 9 2 25 0 35 -3 9 -5 1 -5 -18z"/>
<path d="M849 298 c-1 -7 -3 -23 -4 -35 -1 -12 1 -21 4 -18 8 4 13 65 6 65 -3
0 -6 -6 -6 -12z"/>
<path d="M1043 275 c0 -22 2 -30 4 -17 2 12 2 30 0 40 -3 9 -5 -1 -4 -23z"/>
<path d="M2548 270 c2 -22 6 -40 8 -40 2 0 4 18 4 40 0 22 -3 40 -8 40 -4 0
-6 -18 -4 -40z"/>
<path d="M1828 293 c6 -2 18 -2 25 0 6 3 1 5 -13 5 -14 0 -19 -2 -12 -5z"/>
<path d="M1870 274 c0 -14 -4 -23 -9 -19 -5 3 -12 1 -16 -5 -3 -5 3 -10 14
-10 17 0 21 6 21 30 0 17 -2 30 -5 30 -3 0 -5 -12 -5 -26z"/>
<path d="M2010 290 c8 -5 24 -9 35 -9 20 0 20 0 0 9 -11 5 -27 9 -35 9 -13 1
-13 0 0 -9z"/>
<path d="M2322 263 c-2 -32 2 -43 16 -46 16 -4 16 -5 0 -6 -10 0 -18 -5 -18
-11 0 -5 7 -7 15 -4 11 5 15 -7 18 -58 l3 -63 2 78 c2 61 -1 77 -12 77 -10 0
-16 13 -19 38 l-4 37 -1 -42z"/>
<path d="M2458 260 c2 -22 6 -40 8 -40 2 0 4 18 4 40 0 22 -3 40 -8 40 -4 0
-6 -18 -4 -40z"/>
<path d="M580 279 c-13 -9 -13 -10 2 -5 10 3 18 -1 21 -12 3 -12 5 -11 6 6 1
24 -6 27 -29 11z"/>
<path d="M665 274 c-16 -8 -22 -12 -12 -9 13 3 17 -2 18 -28 l2 -32 4 30 c3
16 10 33 16 37 23 14 1 16 -28 2z"/>
<path d="M712 270 c0 -14 2 -19 5 -12 2 6 2 18 0 25 -3 6 -5 1 -5 -13z"/>
<path d="M732 270 c0 -14 2 -19 5 -12 2 6 2 18 0 25 -3 6 -5 1 -5 -13z"/>
<path d="M972 270 c0 -14 2 -19 5 -12 2 6 2 18 0 25 -3 6 -5 1 -5 -13z"/>
<path d="M1023 245 c0 -22 2 -30 4 -17 2 12 2 30 0 40 -3 9 -5 -1 -4 -23z"/>
<path d="M1822 260 c0 -14 2 -19 5 -12 2 6 2 18 0 25 -3 6 -5 1 -5 -13z"/>
<path d="M2003 210 c0 -41 2 -58 4 -37 2 20 2 54 0 75 -2 20 -4 3 -4 -38z"/>
<path d="M2348 273 c6 -2 18 -2 25 0 6 3 1 5 -13 5 -14 0 -19 -2 -12 -5z"/>
<path d="M2423 273 c14 -4 17 -18 18 -96 1 -51 1 -96 0 -100 -1 -5 2 -6 7 -3
5 3 7 18 4 35 -3 22 0 30 15 34 16 4 16 5 -2 6 -17 1 -18 3 -5 11 10 6 11 10
3 10 -9 0 -13 18 -13 55 0 51 -2 55 -22 54 -17 -1 -19 -2 -5 -6z"/>
<path d="M340 260 c0 -4 9 -10 20 -13 11 -3 20 -2 20 3 0 4 -9 10 -20 13 -11
3 -20 2 -20 -3z"/>
<path d="M1112 240 c0 -19 2 -27 5 -17 2 9 2 25 0 35 -3 9 -5 1 -5 -18z"/>
<path d="M1891 253 c-1 -16 5 -23 17 -23 10 0 13 3 6 8 -6 4 -14 14 -17 22 -4
10 -6 8 -6 -7z"/>
<path d="M2020 266 c0 -2 9 -6 20 -9 11 -3 20 -1 20 4 0 5 -9 9 -20 9 -11 0
-20 -2 -20 -4z"/>
<path d="M2213 205 c0 -38 2 -53 4 -32 2 20 2 52 0 70 -2 17 -4 1 -4 -38z"/>
<path d="M2528 218 c5 -95 9 -104 11 -25 0 42 -2 77 -6 77 -5 0 -7 -24 -5 -52z"/>
<path d="M463 225 c0 -22 2 -30 4 -17 2 12 2 30 0 40 -3 9 -5 -1 -4 -23z"/>
<path d="M692 240 c0 -14 2 -19 5 -12 2 6 2 18 0 25 -3 6 -5 1 -5 -13z"/>
<path d="M752 225 c1 -20 5 -38 10 -41 4 -3 7 13 6 35 -1 23 -5 41 -9 41 -5 0
-8 -16 -7 -35z"/>
<path d="M952 240 c0 -14 2 -19 5 -12 2 6 2 18 0 25 -3 6 -5 1 -5 -13z"/>
<path d="M1360 255 c0 -5 5 -17 10 -25 5 -8 10 -10 10 -5 0 6 -5 17 -10 25 -5
8 -10 11 -10 5z"/>
<path d="M1753 200 c0 -43 2 -51 4 -23 3 29 9 43 21 46 16 4 16 5 0 6 -9 0
-19 9 -21 19 -3 9 -4 -12 -4 -48z"/>
<path d="M2140 250 c13 -9 13 -10 0 -10 -13 -1 -13 -2 0 -9 8 -5 26 -11 40
-15 21 -5 20 -3 -5 9 -16 8 -23 14 -15 15 13 0 13 1 0 10 -8 5 -19 10 -25 10
-5 0 -3 -5 5 -10z"/>
<path d="M2345 250 c4 -6 10 -8 15 -5 5 3 11 -14 13 -37 l4 -43 1 48 c2 41 0
47 -19 47 -11 0 -17 -5 -14 -10z"/>
<path d="M2391 243 c-1 -18 4 -23 22 -22 15 1 17 3 5 6 -9 2 -19 12 -21 21 -3
12 -5 10 -6 -5z"/>
<path d="M2410 250 c0 -5 5 -10 11 -10 5 0 7 5 4 10 -3 6 -8 10 -11 10 -2 0
-4 -4 -4 -10z"/>
<path d="M652 225 c0 -16 2 -22 5 -12 2 9 2 23 0 30 -3 6 -5 -1 -5 -18z"/>
<path d="M895 240 c-3 -6 1 -7 9 -4 18 7 21 14 7 14 -6 0 -13 -4 -16 -10z"/>
<path d="M985 240 c-16 -7 -17 -9 -3 -9 10 -1 18 -11 21 -28 3 -23 4 -21 6 10
0 20 0 37 -1 36 -2 0 -12 -4 -23 -9z"/>
<path d="M1133 230 c1 -11 5 -20 10 -20 5 0 7 6 4 14 -4 9 1 17 11 19 12 3 11
5 -5 6 -16 1 -21 -4 -20 -19z"/>
<path d="M1622 233 c-1 -12 -5 -28 -8 -37 -4 -12 0 -16 15 -16 12 0 21 5 21
11 0 5 -4 8 -9 4 -5 -3 -12 9 -14 27 -2 18 -5 23 -5 11z"/>
<path d="M2022 230 c0 -14 2 -19 5 -12 2 6 2 18 0 25 -3 6 -5 1 -5 -13z"/>
<path d="M2185 240 c3 -5 8 -10 11 -10 2 0 4 5 4 10 0 6 -5 10 -11 10 -5 0 -7
-4 -4 -10z"/>
<path d="M712 220 c0 -14 2 -19 5 -12 2 6 2 18 0 25 -3 6 -5 1 -5 -13z"/>
<path d="M732 220 c0 -14 2 -19 5 -12 2 6 2 18 0 25 -3 6 -5 1 -5 -13z"/>
<path d="M782 220 c0 -14 2 -19 5 -12 2 6 2 18 0 25 -3 6 -5 1 -5 -13z"/>
<path d="M808 233 c7 -3 16 -2 19 1 4 3 -2 6 -13 5 -11 0 -14 -3 -6 -6z"/>
<path d="M1932 220 c0 -14 2 -19 5 -12 2 6 2 18 0 25 -3 6 -5 1 -5 -13z"/>
<path d="M1950 229 c0 -5 9 -9 20 -9 11 0 20 2 20 4 0 2 -9 6 -20 9 -11 3 -20
1 -20 -4z"/>
<path d="M2094 120 c0 -69 1 -97 3 -63 2 35 2 91 0 125 -2 35 -3 7 -3 -62z"/>
<path d="M371 214 c0 -11 3 -14 6 -6 3 7 2 16 -1 19 -3 4 -6 -2 -5 -13z"/>
<path d="M823 223 c-13 -2 -23 -8 -23 -13 0 -10 38 -1 46 11 3 5 4 8 2 8 -2
-1 -13 -4 -25 -6z"/>
<path d="M912 200 c0 -19 2 -27 5 -17 2 9 2 25 0 35 -3 9 -5 1 -5 -18z"/>
<path d="M1162 210 c0 -14 2 -19 5 -12 2 6 2 18 0 25 -3 6 -5 1 -5 -13z"/>
<path d="M1340 220 c0 -5 5 -10 10 -10 6 0 10 5 10 10 0 6 -4 10 -10 10 -5 0
-10 -4 -10 -10z"/>
<path d="M1820 181 c0 -39 -4 -51 -17 -54 -14 -4 -12 -5 5 -6 20 -1 22 3 22
54 0 30 -2 55 -5 55 -3 0 -5 -22 -5 -49z"/>
<path d="M1842 148 l2 -83 3 78 c3 64 7 78 18 73 8 -3 15 -1 15 4 0 6 -9 10
-20 10 -19 0 -20 -6 -18 -82z"/>
<path d="M418 195 c2 -14 6 -25 8 -25 2 0 4 11 4 25 0 14 -4 25 -9 25 -4 0 -6
-11 -3 -25z"/>
<path d="M441 198 c-1 -18 4 -28 13 -28 8 0 17 -10 19 -22 4 -20 4 -19 6 5 1
17 -4 27 -13 27 -8 0 -17 10 -19 23 -4 19 -4 18 -6 -5z"/>
<path d="M890 208 c0 -7 -3 -24 -7 -37 -3 -14 -2 -22 3 -18 10 6 18 67 9 67
-3 0 -5 -6 -5 -12z"/>
<path d="M983 185 c0 -22 2 -30 4 -17 2 12 2 30 0 40 -3 9 -5 -1 -4 -23z"/>
<path d="M1045 205 c-18 -8 -23 -14 -13 -15 10 0 18 -10 21 -27 4 -25 4 -24 7
7 l2 35 8 -30 c8 -30 8 -30 9 8 0 20 0 37 -1 36 -2 0 -16 -7 -33 -14z"/>
<path d="M1092 200 c0 -14 2 -19 5 -12 2 6 2 18 0 25 -3 6 -5 1 -5 -13z"/>
<path d="M2070 204 c0 -10 -6 -14 -15 -10 -8 3 -15 1 -15 -4 0 -6 9 -10 20
-10 13 0 20 7 20 20 0 11 -2 20 -5 20 -3 0 -5 -7 -5 -16z"/>
<path d="M2596 205 c-9 -26 -7 -32 5 -12 6 10 9 21 6 23 -2 3 -7 -2 -11 -11z"/>
<path d="M488 170 c2 -22 8 -42 12 -45 5 -3 7 3 5 12 -2 10 -4 30 -4 46 -1 15
-4 27 -9 27 -4 0 -6 -18 -4 -40z"/>
<path d="M612 190 c0 -14 2 -19 5 -12 2 6 2 18 0 25 -3 6 -5 1 -5 -13z"/>
<path d="M687 190 c-3 -11 -1 -20 4 -20 5 0 9 9 9 20 0 11 -2 20 -4 20 -2 0
-6 -9 -9 -20z"/>
<path d="M938 203 c6 -2 18 -2 25 0 6 3 1 5 -13 5 -14 0 -19 -2 -12 -5z"/>
<path d="M1188 203 c6 -2 18 -2 25 0 6 3 1 5 -13 5 -14 0 -19 -2 -12 -5z"/>
<path d="M1301 193 c-1 -14 5 -23 13 -23 8 0 17 -8 19 -17 4 -14 5 -12 6 5 1
13 -5 22 -13 22 -8 0 -17 8 -19 18 -4 13 -5 11 -6 -5z"/>
<path d="M1770 200 c0 -5 5 -10 10 -10 6 0 10 5 10 10 0 6 -4 10 -10 10 -5 0
-10 -4 -10 -10z"/>
<path d="M1950 206 c0 -2 9 -6 20 -9 11 -3 20 -1 20 4 0 5 -9 9 -20 9 -11 0
-20 -2 -20 -4z"/>
<path d="M2160 200 c8 -5 22 -9 30 -9 10 0 8 3 -5 9 -27 12 -43 12 -25 0z"/>
<path d="M2402 203 c14 -4 18 -19 21 -91 l3 -87 2 93 c2 90 1 92 -20 91 -17
-1 -18 -3 -6 -6z"/>
<path d="M652 193 c-15 -3 -22 -10 -18 -19 3 -9 -1 -14 -14 -14 -11 0 -20 -4
-20 -9 0 -5 9 -7 20 -4 16 4 20 0 20 -21 0 -14 5 -26 11 -26 5 0 7 -4 4 -10
-3 -5 -1 -18 5 -27 8 -15 10 -12 6 15 -4 27 0 35 19 44 13 6 32 7 42 3 16 -7
16 -8 -4 -14 l-22 -6 23 -11 c22 -10 23 -9 23 28 0 21 -4 38 -9 38 -5 0 -7 -4
-4 -9 3 -5 -10 -11 -30 -13 -32 -4 -34 -3 -18 9 20 14 7 18 -15 4 -7 -5 -11
-13 -7 -19 3 -6 2 -13 -3 -16 -5 -3 -11 10 -13 29 -3 23 0 35 8 35 7 0 16 5
19 10 3 6 5 9 3 9 -2 -1 -13 -4 -26 -6z"/>
<path d="M1114 185 c3 -9 0 -15 -8 -15 -10 0 -12 -12 -8 -47 6 -63 12 -68 12
-10 0 26 5 47 10 47 6 0 10 9 10 20 0 11 -5 20 -11 20 -6 0 -9 -7 -5 -15z"/>
<path d="M1142 180 c0 -14 2 -19 5 -12 2 6 2 18 0 25 -3 6 -5 1 -5 -13z"/>
<path d="M1875 190 c11 -5 27 -9 35 -9 9 0 8 4 -5 9 -11 5 -27 9 -35 9 -9 0
-8 -4 5 -9z"/>
<path d="M2022 180 c0 -14 2 -19 5 -12 2 6 2 18 0 25 -3 6 -5 1 -5 -13z"/>
<path d="M2132 182 c-1 -13 -6 -20 -12 -17 -5 3 -10 -3 -10 -14 0 -12 5 -21
10 -21 6 0 10 -7 10 -15 0 -8 4 -15 9 -15 5 0 12 -8 14 -17 3 -10 5 2 4 27 0
30 -2 37 -5 20 -5 -19 -8 -14 -13 25 -3 28 -7 40 -7 27z"/>
<path d="M2230 179 c0 -11 5 -17 10 -14 6 4 8 10 5 15 -3 5 3 11 12 13 14 4
13 5 -4 6 -17 1 -23 -5 -23 -20z"/>
<path d="M712 170 c0 -14 2 -19 5 -12 2 6 2 18 0 25 -3 6 -5 1 -5 -13z"/>
<path d="M730 180 c0 -5 5 -10 10 -10 6 0 15 -10 20 -22 8 -21 9 -21 9 -3 1
11 -8 26 -19 33 -12 7 -20 8 -20 2z"/>
<path d="M838 183 c-9 -2 -16 -12 -15 -23 1 -11 6 -16 16 -12 12 4 12 7 1 10
-9 3 -5 9 11 18 24 13 19 16 -13 7z"/>
<path d="M930 183 c0 -5 5 -15 10 -23 7 -12 9 -10 7 8 -1 19 -17 33 -17 15z"/>
<path d="M962 160 c0 -19 2 -27 5 -17 2 9 2 25 0 35 -3 9 -5 1 -5 -18z"/>
<path d="M1177 183 c-11 -3 -16 -11 -13 -19 3 -8 -1 -14 -10 -14 -10 0 -14 -6
-10 -15 3 -9 0 -15 -9 -15 -8 0 -15 -4 -15 -9 0 -5 9 -7 21 -4 12 3 18 11 15
19 -3 8 1 14 10 14 10 0 14 6 10 15 -3 9 0 15 9 15 8 0 15 5 15 10 0 6 -1 9
-2 9 -2 -1 -11 -3 -21 -6z"/>
<path d="M1211 173 c-1 -15 5 -23 17 -24 14 0 14 -2 -3 -8 -14 -6 -22 -4 -27
8 -4 10 -7 1 -7 -23 -1 -29 2 -37 13 -33 9 4 17 -1 19 -11 3 -12 5 -11 6 6 1
14 -5 22 -16 23 -15 0 -15 2 2 8 14 6 22 4 27 -8 4 -10 7 -1 7 23 1 29 -2 37
-13 33 -9 -4 -17 1 -19 11 -3 12 -5 11 -6 -5z"/>
<path d="M1934 95 c0 -55 1 -76 3 -47 2 29 2 74 0 100 -2 26 -3 2 -3 -53z"/>
<path d="M2390 180 c0 -5 5 -10 10 -10 6 0 10 5 10 10 0 6 -4 10 -10 10 -5 0
-10 -4 -10 -10z"/>
<path d="M1033 145 c0 -22 2 -30 4 -17 2 12 2 30 0 40 -3 9 -5 -1 -4 -23z"/>
<path d="M1352 160 c0 -14 2 -19 5 -12 2 6 2 18 0 25 -3 6 -5 1 -5 -13z"/>
<path d="M1772 88 l2 -93 3 87 c3 72 7 87 21 91 12 3 11 5 -5 6 -22 1 -23 -1
-21 -91z"/>
<path d="M1861 159 c1 -17 3 -19 6 -7 3 14 9 15 29 8 15 -6 24 -6 24 0 0 6 -6
10 -14 10 -8 0 -21 3 -30 6 -12 5 -16 0 -15 -17z"/>
<path d="M2192 143 c-2 -39 0 -43 21 -42 16 1 17 3 5 6 -11 3 -18 17 -21 41
l-4 37 -1 -42z"/>
<path d="M2264 90 c0 -52 1 -74 3 -47 2 26 2 68 0 95 -2 26 -3 4 -3 -48z"/>
<path d="M2550 153 c0 -23 6 -33 20 -38 16 -5 18 -10 10 -25 -16 -29 -11 -38
5 -10 19 33 18 38 -5 45 -11 3 -20 11 -20 16 0 5 14 2 30 -6 25 -13 29 -19 20
-35 -16 -29 -11 -38 5 -10 19 33 19 38 -5 45 -12 4 -30 16 -40 28 l-20 21 0
-31z"/>
<path d="M782 103 c-1 -46 -6 -73 -14 -76 -10 -4 -10 -6 0 -6 19 -1 23 19 19
90 l-3 64 -2 -72z"/>
<path d="M857 151 c-2 -10 -1 -25 4 -32 6 -10 9 -4 9 19 0 36 -5 42 -13 13z"/>
<path d="M1594 85 c0 -50 1 -71 3 -48 2 23 2 64 0 90 -2 26 -3 8 -3 -42z"/>
<path d="M1610 162 c0 -4 9 -8 20 -8 11 0 20 4 20 8 0 4 -9 8 -20 8 -11 0 -20
-4 -20 -8z"/>
<path d="M2040 140 c0 -25 4 -30 23 -29 16 1 18 2 5 6 -19 5 -25 43 -7 43 6 0
9 -7 5 -15 -3 -8 -1 -15 4 -15 6 0 10 9 10 20 0 13 -7 20 -20 20 -16 0 -20 -7
-20 -30z"/>
<path d="M364 140 c3 -14 6 -33 6 -42 0 -10 4 -18 9 -18 4 0 6 11 4 24 -3 15
1 25 10 29 12 4 18 -7 28 -46 10 -41 14 -48 20 -32 11 28 11 37 -1 30 -6 -4
-8 7 -5 27 4 26 3 29 -4 13 -9 -19 -10 -19 -10 3 -1 13 5 22 14 22 8 0 15 -9
15 -20 0 -11 7 -20 15 -20 8 0 15 -9 15 -20 0 -11 7 -20 15 -20 8 0 15 -6 16
-12 0 -7 4 -4 9 7 8 18 9 18 9 2 1 -14 6 -17 23 -12 17 6 20 4 15 -9 -4 -9 -3
-16 2 -16 5 0 11 16 13 35 2 19 0 35 -4 35 -4 0 -8 -7 -8 -15 0 -30 -28 -14
-39 23 -7 24 -9 27 -7 10 2 -16 -1 -28 -5 -28 -5 0 -9 6 -10 13 0 6 -4 3 -9
-8 -8 -19 -9 -19 -9 3 -1 13 -7 22 -16 22 -8 0 -15 9 -15 20 0 23 -17 25 -55
8 -22 -10 -28 -9 -37 3 -7 10 -8 8 -4 -11z"/>
<path d="M905 150 c-3 -6 1 -7 9 -4 18 7 21 14 7 14 -6 0 -13 -4 -16 -10z"/>
<path d="M1298 153 c-10 -2 -18 -8 -18 -13 0 -4 9 -6 20 -3 11 3 20 9 20 14 0
5 -1 8 -2 8 -2 -1 -11 -3 -20 -6z"/>
<path d="M1790 150 c0 -5 5 -10 10 -10 6 0 10 5 10 10 0 6 -4 10 -10 10 -5 0
-10 -4 -10 -10z"/>
<path d="M1953 110 c0 -30 2 -43 4 -28 2 16 2 40 0 55 -2 16 -4 3 -4 -27z"/>
<path d="M1970 140 c0 -14 6 -20 23 -19 16 1 17 3 5 6 -10 2 -15 10 -11 19 3
8 0 14 -6 14 -6 0 -11 -9 -11 -20z"/>
<path d="M2171 144 c0 -11 3 -14 6 -6 3 7 2 16 -1 19 -3 4 -6 -2 -5 -13z"/>
<path d="M2300 150 c0 -5 7 -7 15 -4 11 5 15 -9 18 -73 l3 -78 2 83 c2 76 1
82 -18 82 -11 0 -20 -4 -20 -10z"/>
<path d="M2378 153 c6 -2 18 -2 25 0 6 3 1 5 -13 5 -14 0 -19 -2 -12 -5z"/>
<path d="M540 130 c0 -11 4 -20 9 -20 5 0 7 9 4 20 -3 11 -7 20 -9 20 -2 0 -4
-9 -4 -20z"/>
<path d="M995 140 c-16 -7 -17 -9 -3 -9 10 -1 18 -11 21 -28 3 -23 4 -21 6 10
0 20 0 37 -1 36 -2 0 -12 -4 -23 -9z"/>
<path d="M1881 133 c-1 -18 4 -23 22 -22 15 1 17 3 5 6 -9 2 -19 12 -21 21 -3
12 -5 10 -6 -5z"/>
<path d="M2023 75 c0 -44 2 -61 4 -37 2 23 2 59 0 80 -2 20 -4 1 -4 -43z"/>
<path d="M2512 100 c-2 -50 0 -56 18 -56 11 0 20 4 20 8 0 4 -7 8 -14 8 -11 0
-16 14 -19 48 l-3 47 -2 -55z"/>
<path d="M882 120 c0 -14 2 -19 5 -12 2 6 2 18 0 25 -3 6 -5 1 -5 -13z"/>
<path d="M923 95 c0 -27 2 -38 4 -22 2 15 2 37 0 50 -2 12 -4 0 -4 -28z"/>
<path d="M941 113 c-1 -28 2 -33 22 -32 15 1 17 3 5 6 -9 2 -19 16 -21 31 -4
24 -4 24 -6 -5z"/>
<path d="M1061 131 c-7 -5 -10 -14 -7 -20 4 -6 1 -11 -8 -11 -9 0 -14 -8 -13
-20 1 -12 7 -18 14 -16 6 3 14 -3 16 -12 4 -13 5 -11 6 5 1 13 -6 23 -16 26
-16 4 -16 5 1 6 12 1 16 6 12 16 -3 9 0 15 9 15 8 0 15 5 15 10 0 12 -10 13
-29 1z"/>
<path d="M1683 80 c0 -36 2 -50 4 -32 2 17 2 47 0 65 -2 17 -4 3 -4 -33z"/>
<path d="M2373 120 c1 -11 5 -20 10 -20 5 0 7 6 4 14 -4 9 1 17 11 19 12 3 11
5 -5 6 -16 1 -21 -4 -20 -19z"/>
<path d="M570 120 c0 -5 5 -10 10 -10 6 0 10 5 10 10 0 6 -4 10 -10 10 -5 0
-10 -4 -10 -10z"/>
<path d="M602 110 c0 -14 2 -19 5 -12 2 6 2 18 0 25 -3 6 -5 1 -5 -13z"/>
<path d="M802 88 c1 -41 1 -41 5 -8 3 19 10 38 16 42 8 5 6 8 -5 8 -15 0 -18
-8 -16 -42z"/>
<path d="M902 110 c0 -14 2 -19 5 -12 2 6 2 18 0 25 -3 6 -5 1 -5 -13z"/>
<path d="M1172 96 c-2 -29 1 -37 12 -33 9 4 17 -1 19 -11 3 -12 5 -9 6 7 1 16
-3 22 -13 18 -11 -4 -16 3 -19 26 -4 30 -4 30 -5 -7z"/>
<path d="M1313 95 c0 -22 2 -30 4 -17 2 12 2 30 0 40 -3 9 -5 -1 -4 -23z"/>
<path d="M1752 100 c0 -19 2 -27 5 -17 2 9 2 25 0 35 -3 9 -5 1 -5 -18z"/>
<path d="M1863 75 c0 -33 2 -45 4 -27 2 18 2 45 0 60 -2 15 -4 0 -4 -33z"/>
<path d="M2218 123 c6 -2 18 -2 25 0 6 3 1 5 -13 5 -14 0 -19 -2 -12 -5z"/>
<path d="M397 95 c6 -32 11 -41 17 -34 2 2 -2 18 -10 34 l-13 30 6 -30z"/>
<path d="M762 90 c0 -19 2 -27 5 -17 2 9 2 25 0 35 -3 9 -5 1 -5 -18z"/>
<path d="M830 110 c-13 -8 -12 -10 3 -10 9 0 17 5 17 10 0 12 -1 12 -20 0z"/>
<path d="M960 110 c0 -5 6 -7 14 -4 8 3 16 -2 19 -13 4 -14 5 -14 6 5 1 16 -5
22 -19 22 -11 0 -20 -4 -20 -10z"/>
<path d="M1630 110 c0 -5 5 -10 10 -10 6 0 10 5 10 10 0 6 -4 10 -10 10 -5 0
-10 -4 -10 -10z"/>
<path d="M2113 60 c0 -36 2 -50 4 -32 2 17 2 47 0 65 -2 17 -4 3 -4 -33z"/>
<path d="M2173 80 c0 -25 2 -35 4 -22 2 12 2 32 0 45 -2 12 -4 2 -4 -23z"/>
<path d="M2403 60 c0 -36 2 -50 4 -32 2 17 2 47 0 65 -2 17 -4 3 -4 -33z"/>
<path d="M356 78 c3 -21 -1 -48 -7 -60 -11 -20 -10 -22 3 -10 13 10 17 10 21
0 3 -8 6 -5 7 7 1 20 1 20 10 0 9 -20 9 -20 9 0 0 11 -4 29 -9 40 -9 20 -9 20
-10 0 -1 -13 -7 -5 -16 20 l-13 40 5 -37z"/>
<path d="M682 80 c0 -19 2 -27 5 -17 2 9 2 25 0 35 -3 9 -5 1 -5 -18z"/>
<path d="M1083 65 c0 -27 2 -38 4 -22 2 15 2 37 0 50 -2 12 -4 0 -4 -28z"/>
<path d="M1701 93 c-1 -18 4 -23 22 -22 15 1 17 3 5 6 -9 2 -19 12 -21 21 -3
12 -5 10 -6 -5z"/>
<path d="M1720 100 c0 -5 5 -10 10 -10 6 0 10 5 10 10 0 6 -4 10 -10 10 -5 0
-10 -4 -10 -10z"/>
<path d="M1791 88 c1 -16 3 -18 6 -6 2 9 12 19 21 21 12 3 10 5 -5 6 -18 1
-23 -4 -22 -21z"/>
<path d="M2002 80 c0 -19 2 -27 5 -17 2 9 2 25 0 35 -3 9 -5 1 -5 -18z"/>
<path d="M2242 90 c0 -14 2 -19 5 -12 2 6 2 18 0 25 -3 6 -5 1 -5 -13z"/>
<path d="M2550 94 c0 -8 -4 -12 -10 -9 -5 3 -10 1 -10 -4 0 -6 7 -11 15 -11 8
0 15 2 15 4 0 2 3 11 6 20 3 9 1 16 -5 16 -6 0 -11 -7 -11 -16z"/>
<path d="M456 66 c-4 -19 -12 -37 -19 -39 -7 -3 -4 -6 6 -6 9 -1 17 -6 17 -11
0 -7 6 -7 19 0 14 7 21 6 24 -3 3 -7 6 -5 6 6 1 14 -4 16 -25 11 -26 -7 -26
-6 -19 35 8 49 0 56 -9 7z"/>
<path d="M1153 65 c0 -22 2 -30 4 -17 2 12 2 30 0 40 -3 9 -5 -1 -4 -23z"/>
<path d="M1293 50 c0 -30 2 -43 4 -28 2 16 2 40 0 55 -2 16 -4 3 -4 -27z"/>
<path d="M1880 62 c0 -30 4 -42 14 -42 8 0 17 -6 19 -12 3 -8 6 -6 6 5 1 9 -5
17 -12 17 -7 0 -14 14 -15 32 -4 48 -12 47 -12 0z"/>
<path d="M2042 70 c0 -19 2 -27 5 -17 2 9 2 25 0 35 -3 9 -5 1 -5 -18z"/>
<path d="M2065 90 c-3 -5 -1 -10 4 -10 6 0 11 5 11 10 0 6 -2 10 -4 10 -3 0
-8 -4 -11 -10z"/>
<path d="M2493 50 c0 -30 2 -43 4 -28 2 16 2 40 0 55 -2 16 -4 3 -4 -27z"/>
<path d="M701 73 c-1 -23 34 -41 61 -30 7 3 3 6 -9 6 -15 1 -23 7 -23 19 0 14
-2 14 -9 3 -7 -11 -10 -10 -14 5 -4 16 -5 16 -6 -3z"/>
<path d="M823 45 c0 -27 2 -38 4 -22 2 15 2 37 0 50 -2 12 -4 0 -4 -28z"/>
<path d="M1815 80 c-3 -5 -1 -10 4 -10 6 0 11 5 11 10 0 6 -2 10 -4 10 -3 0
-8 -4 -11 -10z"/>
<path d="M2198 83 c7 -3 16 -2 19 1 4 3 -2 6 -13 5 -11 0 -14 -3 -6 -6z"/>
<path d="M2313 45 c0 -27 2 -38 4 -22 2 15 2 37 0 50 -2 12 -4 0 -4 -28z"/>
<path d="M2374 55 c0 -19 4 -35 8 -35 4 0 8 16 8 35 0 19 -4 35 -8 35 -4 0 -8
-16 -8 -35z"/>
<path d="M170 70 c0 -5 5 -10 11 -10 5 0 7 5 4 10 -3 6 -8 10 -11 10 -2 0 -4
-4 -4 -10z"/>
<path d="M594 68 c-5 -7 0 -9 14 -6 18 5 21 1 25 -31 4 -36 4 -36 5 7 2 35 -1
42 -17 42 -11 0 -23 -5 -27 -12z"/>
<path d="M862 60 c0 -14 2 -19 5 -12 2 6 2 18 0 25 -3 6 -5 1 -5 -13z"/>
<path d="M1330 70 c0 -5 5 -10 10 -10 6 0 10 5 10 10 0 6 -4 10 -10 10 -5 0
-10 -4 -10 -10z"/>
<path d="M1362 60 c0 -14 2 -19 5 -12 2 6 2 18 0 25 -3 6 -5 1 -5 -13z"/>
<path d="M973 35 c0 -22 2 -30 4 -17 2 12 2 30 0 40 -3 9 -5 -1 -4 -23z"/>
<path d="M992 50 c0 -14 2 -19 5 -12 2 6 2 18 0 25 -3 6 -5 1 -5 -13z"/>
<path d="M1012 50 c0 -14 2 -19 5 -12 2 6 2 18 0 25 -3 6 -5 1 -5 -13z"/>
<path d="M1130 55 c0 -8 -7 -15 -15 -15 -8 0 -15 -4 -15 -9 0 -5 9 -7 20 -4
17 4 30 43 15 43 -3 0 -5 -7 -5 -15z"/>
<path d="M1911 54 c0 -11 3 -14 6 -6 3 7 2 16 -1 19 -3 4 -6 -2 -5 -13z"/>
<path d="M1975 61 c3 -5 -3 -12 -12 -14 -17 -4 -17 -5 0 -6 9 0 17 -6 17 -12
0 -6 -7 -9 -15 -5 -8 3 -15 1 -15 -4 0 -6 9 -10 20 -10 16 0 20 7 20 30 0 17
-5 30 -11 30 -5 0 -8 -4 -4 -9z"/>
<path d="M150 56 c0 -2 8 -10 18 -17 15 -13 16 -12 3 4 -13 16 -21 21 -21 13z"/>
<path d="M1725 50 c-3 -5 -1 -10 4 -10 6 0 11 5 11 10 0 6 -2 10 -4 10 -3 0
-8 -4 -11 -10z"/>
<path d="M1752 30 c0 -19 2 -27 5 -17 2 9 2 25 0 35 -3 9 -5 1 -5 -18z"/>
<path d="M1792 30 c0 -19 2 -27 5 -17 2 9 2 25 0 35 -3 9 -5 1 -5 -18z"/>
<path d="M1822 53 c9 -2 19 -12 21 -21 3 -12 5 -10 6 6 1 17 -4 22 -21 21 -16
-1 -18 -3 -6 -6z"/>
<path d="M2222 53 c9 -2 19 -16 21 -31 4 -24 4 -24 6 6 1 27 -2 32 -21 31 -16
-1 -18 -3 -6 -6z"/>
<path d="M2443 45 c0 -8 4 -12 9 -9 5 3 6 10 3 15 -9 13 -12 11 -12 -6z"/>
<path d="M2684 39 c-19 -22 -19 -22 4 -10 26 14 29 4 5 -16 -16 -13 -16 -13 5
-3 24 12 26 18 14 38 -7 9 -13 7 -28 -9z"/>
<path d="M407 30 c3 -11 7 -20 9 -20 2 0 4 9 4 20 0 11 -4 20 -9 20 -5 0 -7
-9 -4 -20z"/>
<path d="M612 30 c0 -14 2 -19 5 -12 2 6 2 18 0 25 -3 6 -5 1 -5 -13z"/>
<path d="M842 25 c0 -17 2 -22 5 -12 2 9 2 23 0 30 -3 6 -5 -1 -5 -18z"/>
<path d="M933 40 c-30 -12 -29 -18 2 -12 14 2 25 8 25 13 0 5 -1 9 -2 8 -2 0
-13 -4 -25 -9z"/>
<path d="M1174 35 c3 -9 0 -15 -9 -15 -8 0 -15 -4 -15 -8 0 -4 9 -8 20 -8 14
0 19 6 18 23 -2 13 -6 23 -11 23 -5 0 -7 -7 -3 -15z"/>
<path d="M1310 41 c0 -5 9 -7 20 -4 11 3 20 7 20 9 0 2 -9 4 -20 4 -11 0 -20
-4 -20 -9z"/>
<path d="M1611 34 c-1 -14 7 -24 22 -27 19 -5 20 -4 6 6 -9 7 -18 19 -22 27
-4 10 -6 9 -6 -6z"/>
<path d="M2182 34 c-10 -11 -8 -15 13 -20 14 -4 29 -4 32 0 4 3 -1 6 -10 6 -8
0 -17 6 -19 14 -3 12 -5 12 -16 0z"/>
<path d="M2350 25 c0 -14 4 -25 9 -25 4 0 6 11 3 25 -2 14 -6 25 -8 25 -2 0
-4 -11 -4 -25z"/>
<path d="M2601 23 c-10 -26 -10 -27 4 -9 8 11 15 23 15 28 0 15 -7 8 -19 -19z"/>
<path d="M2735 40 c-3 -5 -1 -18 5 -27 11 -17 11 -16 5 1 -3 11 0 23 7 28 9 5
10 8 1 8 -6 0 -15 -4 -18 -10z"/>
<path d="M2836 42 c-3 -5 1 -9 9 -9 8 0 15 4 15 9 0 10 -17 10 -24 0z"/>
<path d="M197 28 c7 -8 10 -17 7 -20 -2 -3 7 -5 21 -5 14 0 25 0 23 1 -2 1
-16 10 -33 21 -21 13 -26 14 -18 3z"/>
<path d="M520 20 c0 -11 4 -20 9 -20 5 0 7 9 4 20 -3 11 -7 20 -9 20 -2 0 -4
-9 -4 -20z"/>
<path d="M703 26 c3 -8 2 -17 -4 -20 -5 -2 -4 -3 3 -2 17 3 23 36 8 36 -7 0
-10 -6 -7 -14z"/>
<path d="M1230 30 c-12 -8 -11 -10 8 -10 12 0 22 5 22 10 0 13 -11 13 -30 0z"/>
<path d="M1810 29 c0 -5 5 -7 10 -4 6 3 10 8 10 11 0 2 -4 4 -10 4 -5 0 -10
-5 -10 -11z"/>
<path d="M2580 32 c0 -6 -6 -9 -14 -6 -7 3 -16 -2 -19 -10 -4 -9 -2 -16 3 -16
6 0 10 6 10 13 0 9 2 9 9 -1 6 -11 10 -10 15 4 3 9 4 19 1 22 -3 3 -5 0 -5 -6z"/>
<path d="M2626 25 c-9 -26 -7 -32 5 -12 6 10 9 21 6 23 -2 3 -7 -2 -11 -11z"/>
<path d="M1026 21 c-19 -7 -19 -8 2 -13 15 -4 22 -2 22 8 0 8 -1 14 -2 13 -2
0 -12 -4 -22 -8z"/>
<path d="M1061 14 c0 -11 3 -14 6 -6 3 7 2 16 -1 19 -3 4 -6 -2 -5 -13z"/>
<path d="M1201 14 c0 -11 3 -14 6 -6 3 7 2 16 -1 19 -3 4 -6 -2 -5 -13z"/>
<path d="M1341 14 c0 -11 3 -14 6 -6 3 7 2 16 -1 19 -3 4 -6 -2 -5 -13z"/>
<path d="M1700 13 c0 -15 2 -16 10 -3 9 13 11 13 20 0 8 -13 10 -12 10 3 0 10
-8 17 -20 17 -12 0 -20 -7 -20 -17z"/>
<path d="M2041 14 c0 -11 3 -14 6 -6 3 7 2 16 -1 19 -3 4 -6 -2 -5 -13z"/>
<path d="M2060 20 c0 -5 5 -10 11 -10 5 0 7 5 4 10 -3 6 -8 10 -11 10 -2 0 -4
-4 -4 -10z"/>
<path d="M2471 14 c0 -11 3 -14 6 -6 3 7 2 16 -1 19 -3 4 -6 -2 -5 -13z"/>
<path d="M2646 13 c-6 -14 -5 -15 5 -6 7 7 10 15 7 18 -3 3 -9 -2 -12 -12z"/>
<path d="M2760 21 c0 -6 4 -13 10 -16 6 -3 7 1 4 9 -7 18 -14 21 -14 7z"/>
<path d="M560 9 c0 -5 5 -7 10 -4 6 3 10 8 10 11 0 2 -4 4 -10 4 -5 0 -10 -5
-10 -11z"/>
<path d="M2145 10 c27 -12 43 -12 25 0 -8 5 -22 9 -30 9 -10 0 -8 -3 5 -9z"/>
<path d="M2285 10 c3 -5 8 -10 11 -10 2 0 4 5 4 10 0 6 -5 10 -11 10 -5 0 -7
-4 -4 -10z"/>
<path d="M2915 10 c-3 -5 -1 -10 4 -10 6 0 11 5 11 10 0 6 -2 10 -4 10 -3 0
-8 -4 -11 -10z"/>
</g>
</svg>
